<?xml version="1.0" encoding="utf-8"?>
<!-- Generator: Adobe Illustrator 19.1.0, SVG Export Plug-In . SVG Version: 6.00 Build 0)  -->
<svg version="1.1" xmlns="http://www.w3.org/2000/svg" xmlns:xlink="http://www.w3.org/1999/xlink" x="0px" y="0px"
	 viewBox="0 0 612 615.3" style="enable-background:new 0 0 612 615.3;" xml:space="preserve">
<style type="text/css">
	.st0{fill:#346B80;}
	.st1{fill:none;stroke:#FFFFFF;stroke-width:2.9402;stroke-miterlimit:10;}
	.st2{fill:none;stroke:#FFFFFF;stroke-width:3.4606;stroke-miterlimit:10;}
	.st3{opacity:0.6;}
	.st4{fill:#FFFFFF;}
	.st5{opacity:0.6;fill:#FFFFFF;}
	.st6{fill:none;stroke:#FFFFFF;stroke-width:2.299;stroke-miterlimit:10;}
	.st7{fill:none;stroke:#FFFFFF;stroke-width:1.5399;stroke-miterlimit:10;}
	.st8{fill:none;stroke:#FFFFFF;stroke-width:2.6948;stroke-miterlimit:10;}
	.st9{fill:#6ECEF0;}
</style>
<g id="Layer_2_1_">
	<g id="Layer_2">
		<rect x="14" y="12.4" class="st0" width="584.1" height="594.1"/>
	</g>
</g>
<g id="Layer_1">
	<g>
		<g>
			<polygon class="st1" points="377.8,241.3 238.1,241.3 229.9,123.3 386,123.3 			"/>
			<rect x="212.1" y="77.1" class="st2" width="191.8" height="46.2"/>
			<g class="st3">
				<g>
					<path class="st4" d="M306.4,76.2c0,0-23.9-1.9-35.3-17.6C259.8,42.9,278,31,290.2,35.9c12.2,4.9,18.1,35.8,18.1,35.8
						s-18.4-28.3-28-26.2C270.8,47.5,293.9,72.5,306.4,76.2z"/>
				</g>
				<g>
					<path class="st4" d="M311.8,72.9c0,0,1.3-40.3,21.5-45.6c20.2-5.3,24.8,29.4-14.9,43.7c0,0,24.4-20.8,14.7-28.4
						C323.3,35,311.8,72.9,311.8,72.9z"/>
				</g>
				<g>
					<path class="st4" d="M315,76.1c0,0,10.1,1.3,25.3-7.1c15.1-8.4,29.8-0.3,29.8-0.3l-8.8-9.9l3.9-9.9c0,0-10.3,2.5-22.4,11.4
						C330.6,69.2,327.1,73.1,315,76.1z"/>
				</g>
				<g>
					<path class="st4" d="M294.9,76.6c0,0-40.5-10.6-47.7,11.8l-1.7-9.2l-8.7,3.1c0,0,8.8-14.3,31.2-14.2
						C290.3,68.3,294.9,76.6,294.9,76.6z"/>
				</g>
			</g>
			<rect x="300.2" y="78.2" class="st5" width="16.4" height="163"/>
			<polygon class="st5" points="381.5,188 235.2,188 233,167.2 383,167.2 			"/>
		</g>
		<g>
			<polygon class="st6" points="494.6,264.2 385.4,264.2 378.9,171.9 501,186.7 			"/>
			
				<rect x="369.9" y="143.4" transform="matrix(0.9928 0.1194 -0.1194 0.9928 22.4541 -51.6854)" class="st6" width="144.9" height="36.1"/>
			<g class="st3">
				<g>
					<path class="st4" d="M439,142.6c0,0-18.1-5-24.5-18.8c-6.4-13.7,9.4-20.1,18.1-14.6c8.6,5.5,8.6,30.2,8.6,30.2
						s-9.9-24.5-17.6-24.3C415.9,115.2,429.9,137.8,439,142.6z"/>
				</g>
				<g>
					<path class="st4" d="M443.6,140.8c0,0,7-30.7,23.3-31.8c16.3-1.1,14.7,26.3-17.9,31.3c0,0,21.9-12.3,15.5-19.6
						C458.1,113.4,443.6,140.8,443.6,140.8z"/>
				</g>
				<g>
					<path class="st4" d="M445.5,143.7c0,0,7.6,2.5,20.4-1.7c12.9-4.2,22.9,4.2,22.9,4.2l-5.3-8.9l4.5-7c0,0-8.3,0.4-18.9,5.4
						C458.5,140.8,455.3,143.3,445.5,143.7z"/>
				</g>
				<g>
					<path class="st4" d="M430.1,141.1c0,0-29.5-14.2-38.4,1.9l0.1-7.3l-7.2,1.1c0,0,8.9-9.7,26-6.2
						C427.8,134,430.1,141.1,430.1,141.1z"/>
				</g>
			</g>
			<rect x="434.5" y="143" class="st5" width="12.8" height="121.1"/>
			<polygon class="st5" points="498.1,222.5 381.9,222.5 381.9,206.2 499.4,206.2 			"/>
		</g>
		<g>
			<polygon class="st7" points="96.8,251.5 170,251.5 174.3,189.7 92.5,199.6 			"/>
			
				<rect x="83.3" y="170.6" transform="matrix(-0.9928 0.1195 -0.1195 -0.9928 284.4604 348.3035)" class="st7" width="97.1" height="24.2"/>
			<g class="st3">
				<g>
					<path class="st4" d="M134.1,170c0,0,12.1-3.4,16.4-12.6c4.3-9.2-6.3-13.5-12.1-9.8c-5.8,3.7-5.8,20.2-5.8,20.2
						s6.7-16.4,11.8-16.3C149.5,151.7,140.1,166.9,134.1,170z"/>
				</g>
				<g>
					<path class="st4" d="M131,168.9c0,0-4.7-20.6-15.6-21.3c-10.9-0.7-9.8,17.6,12,21c0,0-14.6-8.3-10.4-13.1
						C121.3,150.5,131,168.9,131,168.9z"/>
				</g>
				<g>
					<path class="st4" d="M129.7,170.8c0,0-5.1,1.7-13.7-1.1c-8.6-2.8-15.3,2.8-15.3,2.8l3.5-6l-3-4.7c0,0,5.5,0.2,12.7,3.6
						C121,168.8,123.1,170.5,129.7,170.8z"/>
				</g>
				<g>
					<path class="st4" d="M140,169c0,0,19.7-9.5,25.7,1.3l-0.1-4.9l4.8,0.7c0,0-6-6.5-17.4-4.2C141.6,164.3,140,169,140,169z"/>
				</g>
			</g>
			<rect x="128.5" y="170.3" class="st5" width="8.6" height="81.1"/>
			<polygon class="st5" points="94.5,223.6 172.3,223.6 172.3,212.6 93.6,212.6 			"/>
		</g>
		<g>
			<rect x="206.2" y="136.5" class="st5" width="12.7" height="138.3"/>
			<rect x="181.4" y="203.9" class="st5" width="62.3" height="16.2"/>
			<g class="st3">
				<g>
					<path class="st4" d="M210,135.9c0,0-13.4-2.4-18.9-11.9c-5.5-9.5,5.4-15.2,12-11.8c6.6,3.4,8.3,21.2,8.3,21.2
						s-8.8-17-14.3-16.4C191.6,117.7,203.2,133.1,210,135.9z"/>
				</g>
				<g>
					<path class="st4" d="M213.3,134.4c0,0,3-22.7,14.6-24.5c11.7-1.9,12.4,18-10.8,23.8c0,0,14.9-10.4,9.9-15.2
						S213.3,134.4,213.3,134.4z"/>
				</g>
				<g>
					<path class="st4" d="M214.9,136.3c0,0,5.6,1.3,14.6-2.6c9-3.9,16.8,1.5,16.8,1.5l-4.4-6.1l2.7-5.4c0,0-5.9,0.8-13.3,5.2
						C224.1,133.3,221.9,135.3,214.9,136.3z"/>
				</g>
				<g>
					<path class="st4" d="M203.5,135.5c0,0-22.3-8.2-27.6,4l-0.4-5.3l-5.1,1.3c0,0,5.8-7.6,18.4-6.3
						C201.4,130.5,203.5,135.5,203.5,135.5z"/>
				</g>
			</g>
			<rect x="181.4" y="148.5" class="st1" width="62.3" height="127.1"/>
			<rect x="174.6" y="135.9" class="st8" width="75.9" height="12.6"/>
		</g>
	</g>
	<g>
		<rect x="26.8" y="297.4" class="st9" width="558.4" height="125.3"/>
		<g>
			<path class="st0" d="M43.1,353.2h-7.3V307h7.3v19.8h8.2V307h7.4v46.2h-7.4v-19.8h-8.2V353.2z"/>
			<path class="st0" d="M64.7,318.1c0-7.4,3.9-11.6,11-11.6s11,4.2,11,11.6v24c0,7.4-3.9,11.6-11,11.6s-11-4.2-11-11.6V318.1z
				 M72,342.6c0,3.3,1.5,4.6,3.8,4.6c2.3,0,3.8-1.3,3.8-4.6v-24.9c0-3.3-1.5-4.6-3.8-4.6c-2.3,0-3.8,1.3-3.8,4.6V342.6z"/>
			<path class="st0" d="M108.9,328.6l-2.6,24.6h-10L91.1,307h7.1l3.9,36.4l3.5-36.4h7l3.6,36.7L120,307h6.3l-5.1,46.2h-9.6
				L108.9,328.6z"/>
			<path class="st0" d="M142.8,307h11.5c7.3,0,10.8,4,10.8,11.4v23.4c0,7.4-3.6,11.4-10.8,11.4h-11.5V307z M150.1,313.6v33h4.1
				c2.3,0,3.7-1.2,3.7-4.5v-24c0-3.3-1.4-4.5-3.7-4.5H150.1z"/>
			<path class="st0" d="M170.5,318.1c0-7.4,3.9-11.6,11-11.6s11,4.2,11,11.6v24c0,7.4-3.9,11.6-11,11.6s-11-4.2-11-11.6V318.1z
				 M177.7,342.6c0,3.3,1.5,4.6,3.8,4.6c2.3,0,3.8-1.3,3.8-4.6v-24.9c0-3.3-1.5-4.6-3.8-4.6c-2.3,0-3.8,1.3-3.8,4.6V342.6z"/>
			<path class="st0" d="M205.8,326.5h10v6.6h-10v13.5h12.5v6.6h-19.8V307h19.8v6.6h-12.5V326.5z"/>
			<path class="st0" d="M233.9,306.5c7.1,0,10.7,4.2,10.7,11.6v1.5h-6.9v-1.9c0-3.3-1.3-4.6-3.6-4.6c-2.3,0-3.6,1.3-3.6,4.6
				c0,9.5,14.2,11.3,14.2,24.5c0,7.4-3.7,11.6-10.8,11.6s-10.8-4.2-10.8-11.6v-2.8h6.9v3.3c0,3.3,1.5,4.5,3.8,4.5
				c2.3,0,3.8-1.2,3.8-4.5c0-9.5-14.2-11.3-14.2-24.5C223.2,310.7,226.8,306.5,233.9,306.5z"/>
			<path class="st0" d="M285.2,353.2h-7.3l-1.3-8.4h-8.9l-1.3,8.4h-6.7l7.4-46.2h10.6L285.2,353.2z M268.6,338.6h7l-3.5-23.4
				L268.6,338.6z"/>
			<path class="st0" d="M43.3,368.7v-3.4h5.9v3.4c5.1,1.1,7.8,5,7.8,11.3v1.5h-6.9v-1.9c0-3.3-1.3-4.6-3.6-4.6
				c-2.3,0-3.6,1.3-3.6,4.6c0,9.5,14.2,10,14.2,23.2c0,6.3-2.7,10.3-7.9,11.4v3.4h-5.9V414c-5.2-1.1-7.9-5.1-7.9-11.4v-3.2h6.9v3.6
				c0,3.3,1.5,4.5,3.8,4.5c2.3,0,3.8-1.2,3.8-4.5c0-9.5-14.2-10-14.2-23.2C35.6,373.8,38.2,369.8,43.3,368.7z"/>
			<path class="st0" d="M69.8,399.5v4.3c0,3.3,1.5,4.5,3.8,4.5c2.3,0,3.8-1.2,3.8-4.5v-10.2c0-3.3-1.5-4.6-3.8-4.6
				c-2.3,0-3.8,1.3-3.8,4.6v1.4h-6.9l1.3-26.8h19.1v6.6H70.8l-0.6,11c1.3-2.2,3.4-3.4,6.3-3.4c5.3,0,8.1,3.8,8.1,10.6v10.3
				c0,7.4-3.7,11.6-10.8,11.6s-10.8-4.2-10.8-11.6v-3.8H69.8z"/>
			<path class="st0" d="M90.1,379.3c0-7.4,3.9-11.6,11-11.6s11,4.2,11,11.6v24c0,7.4-3.9,11.6-11,11.6s-11-4.2-11-11.6V379.3z
				 M97.4,403.8c0,3.3,1.5,4.6,3.8,4.6c2.3,0,3.8-1.3,3.8-4.6v-24.9c0-3.3-1.5-4.6-3.8-4.6c-2.3,0-3.8,1.3-3.8,4.6V403.8z"/>
			<path class="st0" d="M125.2,407.4v7h-7v-7H125.2z"/>
			<path class="st0" d="M131.2,379.3c0-7.4,3.9-11.6,11-11.6s11,4.2,11,11.6v24c0,7.4-3.9,11.6-11,11.6s-11-4.2-11-11.6V379.3z
				 M138.5,403.8c0,3.3,1.5,4.6,3.8,4.6c2.3,0,3.8-1.3,3.8-4.6v-24.9c0-3.3-1.5-4.6-3.8-4.6c-2.3,0-3.8,1.3-3.8,4.6V403.8z"/>
			<path class="st0" d="M158.6,379.3c0-7.4,3.9-11.6,11-11.6s11,4.2,11,11.6v24c0,7.4-3.9,11.6-11,11.6s-11-4.2-11-11.6V379.3z
				 M165.9,403.8c0,3.3,1.5,4.6,3.8,4.6c2.3,0,3.8-1.3,3.8-4.6v-24.9c0-3.3-1.5-4.6-3.8-4.6c-2.3,0-3.8,1.3-3.8,4.6V403.8z"/>
			<path class="st0" d="M209.1,388.7h10.2v14.7c0,7.4-3.7,11.6-10.8,11.6c-7.1,0-10.8-4.2-10.8-11.6v-24c0-7.4,3.7-11.6,10.8-11.6
				c7.1,0,10.8,4.2,10.8,11.6v4.5h-6.9v-5c0-3.3-1.5-4.6-3.8-4.6c-2.3,0-3.8,1.3-3.8,4.6v24.9c0,3.3,1.5,4.5,3.8,4.5
				c2.3,0,3.8-1.2,3.8-4.5v-8.5h-3.3V388.7z"/>
			<path class="st0" d="M225.3,368.2h7.3v46.2h-7.3V368.2z"/>
			<path class="st0" d="M246.4,388.8h9.4v6.6h-9.4v19.1h-7.3v-46.2h19.2v6.6h-11.9V388.8z"/>
			<path class="st0" d="M261.1,368.2h22.4v6.6h-7.6v39.6h-7.3v-39.6h-7.6V368.2z"/>
			<path class="st0" d="M320.6,397.2v6.1c0,7.4-3.7,11.6-10.8,11.6c-7.1,0-10.8-4.2-10.8-11.6v-24c0-7.4,3.7-11.6,10.8-11.6
				c7.1,0,10.8,4.2,10.8,11.6v4.5h-6.9v-5c0-3.3-1.5-4.6-3.8-4.6c-2.3,0-3.8,1.3-3.8,4.6v24.9c0,3.3,1.5,4.5,3.8,4.5
				c2.3,0,3.8-1.2,3.8-4.5v-6.6H320.6z"/>
			<path class="st0" d="M349.8,414.4h-7.3l-1.3-8.4h-8.9l-1.3,8.4h-6.7l7.4-46.2h10.6L349.8,414.4z M333.3,399.8h7l-3.5-23.4
				L333.3,399.8z"/>
			<path class="st0" d="M369.7,414.4c-0.4-1.2-0.7-1.9-0.7-5.7v-7.3c0-4.3-1.5-5.9-4.8-5.9h-2.5v18.8h-7.3v-46.2h11
				c7.5,0,10.8,3.5,10.8,10.6v3.6c0,4.8-1.5,7.9-4.8,9.4c3.6,1.5,4.8,5,4.8,9.8v7.1c0,2.2,0.1,3.9,0.8,5.6H369.7z M361.8,374.8V389
				h2.8c2.7,0,4.4-1.2,4.4-4.9v-4.6c0-3.3-1.1-4.8-3.7-4.8H361.8z"/>
			<path class="st0" d="M382.4,368.2h11.5c7.3,0,10.8,4,10.8,11.4V403c0,7.4-3.6,11.4-10.8,11.4h-11.5V368.2z M389.6,374.8v33h4.1
				c2.3,0,3.7-1.2,3.7-4.5v-24c0-3.3-1.4-4.5-3.7-4.5H389.6z"/>
			<path class="st0" d="M431.9,367.7c7.1,0,10.7,4.2,10.7,11.6v1.5h-6.9v-1.9c0-3.3-1.3-4.6-3.6-4.6c-2.3,0-3.6,1.3-3.6,4.6
				c0,9.5,14.2,11.3,14.2,24.5c0,7.4-3.7,11.6-10.8,11.6c-7.1,0-10.8-4.2-10.8-11.6v-2.8h6.9v3.3c0,3.3,1.5,4.5,3.8,4.5
				c2.3,0,3.8-1.2,3.8-4.5c0-9.5-14.2-11.3-14.2-24.5C421.3,371.9,424.9,367.7,431.9,367.7z"/>
			<path class="st0" d="M447.6,379.3c0-7.4,3.9-11.6,11-11.6c7.1,0,11,4.2,11,11.6v24c0,7.4-3.9,11.6-11,11.6c-7.1,0-11-4.2-11-11.6
				V379.3z M454.9,403.8c0,3.3,1.5,4.6,3.8,4.6c2.3,0,3.8-1.3,3.8-4.6v-24.9c0-3.3-1.5-4.6-3.8-4.6c-2.3,0-3.8,1.3-3.8,4.6V403.8z"
				/>
			<path class="st0" d="M482.6,368.2v35.6c0,3.3,1.5,4.5,3.8,4.5s3.8-1.2,3.8-4.5v-35.6h6.9v35.2c0,7.4-3.7,11.6-10.8,11.6
				s-10.8-4.2-10.8-11.6v-35.2H482.6z"/>
			<path class="st0" d="M509.7,381v33.5h-6.5v-46.2h9.1l7.5,27.7v-27.7h6.5v46.2h-7.5L509.7,381z"/>
			<path class="st0" d="M532.7,368.2h11.5c7.3,0,10.8,4,10.8,11.4V403c0,7.4-3.6,11.4-10.8,11.4h-11.5V368.2z M540,374.8v33h4.1
				c2.3,0,3.7-1.2,3.7-4.5v-24c0-3.3-1.4-4.5-3.7-4.5H540z"/>
			<path class="st0" d="M566.3,404.2c-0.3-0.8-0.4-1.6-0.4-2.8c0-10.1,7.9-11,7.9-22.5c0-3.3-1.3-4.6-3.6-4.6
				c-2.3,0-3.6,1.3-3.6,4.6v5h-6.9v-4.6c0-7.4,3.6-11.6,10.7-11.6s10.7,4.2,10.7,11.6c0,12-8.6,13.9-8.6,22.3c0,0.9,0.1,1.7,0.3,2.6
				H566.3z M572.9,407.4v7h-7v-7H572.9z"/>
		</g>
	</g>
	<g>
		<rect x="26.8" y="521.9" class="st9" width="558.4" height="72.1"/>
		<g>
			<path class="st0" d="M59.1,577.7h-7.3v-46.2h7.3v19.8h8.2v-19.8h7.4v46.2h-7.4v-19.8h-8.2V577.7z"/>
			<path class="st0" d="M79.2,531.5h22.4v6.6h-7.6v39.6h-7.3v-39.6h-7.6V531.5z"/>
			<path class="st0" d="M104,531.5h22.4v6.6h-7.6v39.6h-7.3v-39.6H104V531.5z"/>
			<path class="st0" d="M152.5,542.9v6c0,7.4-3.6,11.4-10.8,11.4h-3.4v17.4H131v-46.2h10.7C148.9,531.5,152.5,535.5,152.5,542.9z
				 M138.2,538.1v15.6h3.4c2.3,0,3.6-1.1,3.6-4.4v-6.9c0-3.3-1.3-4.4-3.6-4.4H138.2z"/>
			<path class="st0" d="M164.2,545.6v7h-7v-7H164.2z M164.2,570.7v7h-7v-7H164.2z"/>
			<path class="st0" d="M186.7,531.5h6.3l-18.2,46.2h-6.3L186.7,531.5z"/>
			<path class="st0" d="M201.2,531.5h6.3l-18.2,46.2H183L201.2,531.5z"/>
			<path class="st0" d="M233.5,542.1v1.7c0,4.8-1.5,7.8-4.7,9.3c3.9,1.5,5.4,5,5.4,9.9v3.8c0,7.1-3.8,11-11,11h-11.4v-46.2h11
				C230.3,531.5,233.5,535,233.5,542.1z M219.1,538.1v12.2h2.8c2.7,0,4.4-1.2,4.4-4.9v-2.6c0-3.3-1.1-4.8-3.7-4.8H219.1z
				 M219.1,556.9v14.2h4.2c2.4,0,3.8-1.1,3.8-4.6v-4c0-4.3-1.4-5.6-4.7-5.6H219.1z"/>
			<path class="st0" d="M239.9,531.5h7.3v46.2h-7.3V531.5z"/>
			<path class="st0" d="M251.7,531.5h22.4v6.6h-7.6v39.6h-7.3v-39.6h-7.6V531.5z"/>
			<path class="st0" d="M281.6,570.7v7h-7v-7H281.6z"/>
			<path class="st0" d="M288.2,531.5h7.3v39.6h11.9v6.6h-19.2V531.5z"/>
			<path class="st0" d="M314.6,562.4l-9.2-30.9h7.6l5.5,21.1l5.5-21.1h6.9l-9.2,30.9v15.3h-7.3V562.4z"/>
			<path class="st0" d="M351.2,531.5h6.3l-18.2,46.2H333L351.2,531.5z"/>
			<path class="st0" d="M366.2,537.3c5.6,0,6.9-2.7,8-5.8h4.9v46.2h-7.3v-35.2h-5.6V537.3z"/>
			<path class="st0" d="M395.7,544.3v33.5h-6.5v-46.2h9.1l7.5,27.7v-27.7h6.5v46.2h-7.5L395.7,544.3z"/>
			<path class="st0" d="M440.4,542.1v1.7c0,4.8-1.5,7.8-4.7,9.3c3.9,1.5,5.4,5,5.4,9.9v3.8c0,7.1-3.8,11-11,11h-11.4v-46.2h11
				C437.2,531.5,440.4,535,440.4,542.1z M426,538.1v12.2h2.8c2.7,0,4.4-1.2,4.4-4.9v-2.6c0-3.3-1.1-4.8-3.7-4.8H426z M426,556.9
				v14.2h4.2c2.4,0,3.8-1.1,3.8-4.6v-4c0-4.3-1.4-5.6-4.7-5.6H426z"/>
			<path class="st0" d="M462.2,564.3l4.9-32.8h10.1v46.2h-6.9v-33.1l-5,33.1h-6.9l-5.4-32.7v32.7h-6.3v-46.2h10.1L462.2,564.3z"/>
			<path class="st0" d="M507.3,577.7H500l-1.3-8.4h-8.9l-1.3,8.4h-6.7l7.4-46.2H500L507.3,577.7z M490.8,563.1h7l-3.5-23.4
				L490.8,563.1z"/>
			<path class="st0" d="M518.6,562.8v4.3c0,3.3,1.5,4.5,3.8,4.5c2.3,0,3.8-1.2,3.8-4.5v-10.2c0-3.3-1.5-4.6-3.8-4.6
				c-2.3,0-3.8,1.3-3.8,4.6v1.4h-6.9l1.3-26.8h19.1v6.6h-12.6l-0.6,11c1.3-2.2,3.4-3.4,6.3-3.4c5.3,0,8.1,3.8,8.1,10.6v10.3
				c0,7.4-3.7,11.6-10.8,11.6s-10.8-4.2-10.8-11.6v-3.8H518.6z"/>
			<path class="st0" d="M537.4,531.5h22.4v6.6h-7.6v39.6H545v-39.6h-7.6V531.5z"/>
		</g>
	</g>
	<g>
		<path class="st4" d="M52.6,468.9h-5.1l-0.9-5.8h-6.2l-0.9,5.8h-4.6l5.2-32.2h7.4L52.6,468.9z M41,458.7h4.9l-2.4-16.3L41,458.7z"
			/>
		<path class="st4" d="M55.8,436.7h5.1v27.6h8.3v4.6H55.8V436.7z"/>
		<path class="st4" d="M72.3,436.7h5.1v27.6h8.3v4.6H72.3V436.7z"/>
		<path class="st4" d="M101.6,458.3l-6.4-21.5h5.3l3.9,14.7l3.9-14.7h4.8l-6.4,21.5v10.7h-5.1V458.3z"/>
		<path class="st4" d="M114.9,444.5c0-5.2,2.7-8.1,7.7-8.1c5,0,7.7,2.9,7.7,8.1v16.7c0,5.2-2.7,8.1-7.7,8.1c-5,0-7.7-2.9-7.7-8.1
			V444.5z M120,461.5c0,2.3,1,3.2,2.6,3.2c1.6,0,2.6-0.9,2.6-3.2v-17.4c0-2.3-1-3.2-2.6-3.2c-1.6,0-2.6,0.9-2.6,3.2V461.5z"/>
		<path class="st4" d="M139.3,436.7v24.8c0,2.3,1,3.1,2.6,3.1c1.6,0,2.6-0.8,2.6-3.1v-24.8h4.8v24.5c0,5.2-2.6,8.1-7.5,8.1
			c-5,0-7.5-2.9-7.5-8.1v-24.5H139.3z"/>
		<path class="st4" d="M166.8,468.9h-5.1v-32.2h5.1v13.8h5.8v-13.8h5.2v32.2h-5.2v-13.8h-5.8V468.9z"/>
		<path class="st4" d="M198.7,468.9h-5.1l-0.9-5.8h-6.2l-0.9,5.8H181l5.2-32.2h7.4L198.7,468.9z M187.2,458.7h4.9l-2.4-16.3
			L187.2,458.7z"/>
		<path class="st4" d="M208.5,463l3.9-26.3h4.6l-5,32.2h-7.5l-5-32.2h5.1L208.5,463z"/>
		<path class="st4" d="M225.3,450.3h6.9v4.6h-6.9v9.4h8.7v4.6h-13.8v-32.2H234v4.6h-8.7V450.3z"/>
		<path class="st4" d="M244.7,436.7h15.6v4.6H255v27.6h-5.1v-27.6h-5.3V436.7z"/>
		<path class="st4" d="M263,444.5c0-5.2,2.7-8.1,7.7-8.1c5,0,7.7,2.9,7.7,8.1v16.7c0,5.2-2.7,8.1-7.7,8.1c-5,0-7.7-2.9-7.7-8.1
			V444.5z M268.1,461.5c0,2.3,1,3.2,2.6,3.2c1.6,0,2.6-0.9,2.6-3.2v-17.4c0-2.3-1-3.2-2.6-3.2c-1.6,0-2.6,0.9-2.6,3.2V461.5z"/>
		<path class="st4" d="M290.6,436.7h8c5.1,0,7.5,2.8,7.5,8V461c0,5.2-2.5,8-7.5,8h-8V436.7z M295.7,441.3v23h2.9
			c1.6,0,2.6-0.8,2.6-3.1v-16.7c0-2.3-1-3.1-2.6-3.1H295.7z"/>
		<path class="st4" d="M309.9,444.5c0-5.2,2.7-8.1,7.7-8.1s7.7,2.9,7.7,8.1v16.7c0,5.2-2.7,8.1-7.7,8.1s-7.7-2.9-7.7-8.1V444.5z
			 M314.9,461.5c0,2.3,1,3.2,2.6,3.2s2.6-0.9,2.6-3.2v-17.4c0-2.3-1-3.2-2.6-3.2s-2.6,0.9-2.6,3.2V461.5z"/>
		<path class="st4" d="M337.5,436.7h5.1v32.2h-5.1V436.7z"/>
		<path class="st4" d="M353.9,436.4c4.9,0,7.5,2.9,7.5,8.1v1h-4.8v-1.3c0-2.3-0.9-3.2-2.5-3.2c-1.6,0-2.5,0.9-2.5,3.2
			c0,6.6,9.9,7.9,9.9,17.1c0,5.2-2.6,8.1-7.5,8.1s-7.5-2.9-7.5-8.1v-2h4.8v2.3c0,2.3,1,3.1,2.6,3.1s2.6-0.8,2.6-3.1
			c0-6.6-9.9-7.9-9.9-17.1C346.5,439.3,349,436.4,353.9,436.4z"/>
		<path class="st4" d="M371.9,464.3c0.6,0,1.2,0,1.7,0c1.6,0,2.9-0.6,2.9-3.1v-24.6h5.1v24.2c0,6.4-3.5,8.1-7.3,8.1
			c-0.9,0-1.6,0-2.4-0.1V464.3z"/>
		<path class="st4" d="M385.6,444.5c0-5.2,2.7-8.1,7.7-8.1s7.7,2.9,7.7,8.1v16.7c0,5.2-2.7,8.1-7.7,8.1s-7.7-2.9-7.7-8.1V444.5z
			 M390.7,461.5c0,2.3,1,3.2,2.6,3.2s2.6-0.9,2.6-3.2v-17.4c0-2.3-1-3.2-2.6-3.2s-2.6,0.9-2.6,3.2V461.5z"/>
		<path class="st4" d="M405.1,436.7h5.1v32.2h-5.1V436.7z"/>
		<path class="st4" d="M419.3,445.6v23.3h-4.6v-32.2h6.3l5.2,19.3v-19.3h4.5v32.2h-5.2L419.3,445.6z"/>
		<path class="st4" d="M448.2,436.7v24.8c0,2.3,1,3.1,2.6,3.1c1.6,0,2.6-0.8,2.6-3.1v-24.8h4.8v24.5c0,5.2-2.6,8.1-7.5,8.1
			s-7.5-2.9-7.5-8.1v-24.5H448.2z"/>
		<path class="st4" d="M469.4,436.4c4.9,0,7.5,2.9,7.5,8.1v1h-4.8v-1.3c0-2.3-0.9-3.2-2.5-3.2c-1.6,0-2.5,0.9-2.5,3.2
			c0,6.6,9.9,7.9,9.9,17.1c0,5.2-2.6,8.1-7.5,8.1s-7.5-2.9-7.5-8.1v-2h4.8v2.3c0,2.3,1,3.1,2.6,3.1s2.6-0.8,2.6-3.1
			c0-6.6-9.9-7.9-9.9-17.1C462,439.3,464.5,436.4,469.4,436.4z"/>
		<path class="st4" d="M493.9,451h6.5v4.6h-6.5v13.3h-5.1v-32.2h13.4v4.6h-8.3V451z"/>
		<path class="st4" d="M505.1,444.5c0-5.2,2.7-8.1,7.7-8.1s7.7,2.9,7.7,8.1v16.7c0,5.2-2.7,8.1-7.7,8.1s-7.7-2.9-7.7-8.1V444.5z
			 M510.2,461.5c0,2.3,1,3.2,2.6,3.2s2.6-0.9,2.6-3.2v-17.4c0-2.3-1-3.2-2.6-3.2s-2.6,0.9-2.6,3.2V461.5z"/>
		<path class="st4" d="M535.3,468.9c-0.3-0.8-0.5-1.3-0.5-4v-5.1c0-3-1-4.1-3.3-4.1h-1.7v13.1h-5.1v-32.2h7.6c5.2,0,7.5,2.4,7.5,7.4
			v2.5c0,3.3-1.1,5.5-3.3,6.5c2.5,1.1,3.4,3.5,3.4,6.9v5c0,1.6,0,2.7,0.6,3.9H535.3z M529.8,441.3v9.9h2c1.9,0,3-0.8,3-3.4v-3.2
			c0-2.3-0.8-3.3-2.6-3.3H529.8z"/>
		<path class="st4" d="M568.5,468.9h-5.1l-0.9-5.8h-6.2l-0.9,5.8h-4.6l5.2-32.2h7.4L568.5,468.9z M557,458.7h4.9l-2.4-16.3
			L557,458.7z"/>
		<path class="st4" d="M112.6,482c3.9,0,4.8-1.9,5.6-4h3.4v32.2h-5.1v-24.6h-3.9V482z"/>
		<path class="st4" d="M139.7,477.9h4.4l-12.7,32.2H127L139.7,477.9z"/>
		<path class="st4" d="M154.5,482.2c-1.6,0-2.6,0.9-2.6,3.2v3.5h-4.8v-3.1c0-5.2,2.6-8.1,7.5-8.1c5,0,7.5,2.9,7.5,8.1
			c0,10.1-10.1,13.9-10.1,19.2c0,0.2,0,0.5,0,0.7h9.6v4.6h-14.6v-4c0-9.5,10-11,10-20.3C157.1,482.9,156.1,482.2,154.5,482.2z"/>
		<path class="st4" d="M179.3,510.1h-5.1v-32.2h5.1v13.8h5.8v-13.8h5.2v32.2h-5.2v-13.8h-5.8V510.1z"/>
		<path class="st4" d="M194.4,485.7c0-5.2,2.7-8.1,7.7-8.1c5,0,7.7,2.9,7.7,8.1v16.7c0,5.2-2.7,8.1-7.7,8.1c-5,0-7.7-2.9-7.7-8.1
			V485.7z M199.5,502.7c0,2.3,1,3.2,2.6,3.2c1.6,0,2.6-0.9,2.6-3.2v-17.4c0-2.3-1-3.2-2.6-3.2c-1.6,0-2.6,0.9-2.6,3.2V502.7z"/>
		<path class="st4" d="M218.8,477.9v24.8c0,2.3,1,3.1,2.6,3.1c1.6,0,2.6-0.8,2.6-3.1v-24.8h4.8v24.5c0,5.2-2.6,8.1-7.5,8.1
			c-5,0-7.5-2.9-7.5-8.1v-24.5H218.8z"/>
		<path class="st4" d="M243.8,510.1c-0.3-0.8-0.5-1.3-0.5-4v-5.1c0-3-1-4.1-3.3-4.1h-1.7v13.1h-5.1v-32.2h7.6c5.2,0,7.5,2.4,7.5,7.4
			v2.5c0,3.3-1.1,5.5-3.3,6.5c2.5,1.1,3.4,3.5,3.4,6.9v5c0,1.6,0,2.7,0.6,3.9H243.8z M238.3,482.5v9.9h2c1.9,0,3-0.8,3-3.4v-3.2
			c0-2.3-0.8-3.3-2.6-3.3H238.3z"/>
		<path class="st4" d="M260.2,485.7c0-5.2,2.7-8.1,7.7-8.1c5,0,7.7,2.9,7.7,8.1v16.7c0,5.2-2.7,8.1-7.7,8.1c-5,0-7.7-2.9-7.7-8.1
			V485.7z M265.3,502.7c0,2.3,1,3.2,2.6,3.2c1.6,0,2.6-0.9,2.6-3.2v-17.4c0-2.3-1-3.2-2.6-3.2c-1.6,0-2.6,0.9-2.6,3.2V502.7z"/>
		<path class="st4" d="M284.3,486.8v23.3h-4.6v-32.2h6.3l5.2,19.3v-19.3h4.5v32.2h-5.2L284.3,486.8z"/>
		<path class="st4" d="M300.4,477.9h5.1v27.6h8.3v4.6h-13.4V477.9z"/>
		<path class="st4" d="M316.9,477.9h5.1v32.2h-5.1V477.9z"/>
		<path class="st4" d="M331,486.8v23.3h-4.6v-32.2h6.3l5.2,19.3v-19.3h4.5v32.2h-5.2L331,486.8z"/>
		<path class="st4" d="M352.2,491.5h6.9v4.6h-6.9v9.4h8.7v4.6h-13.8v-32.2h13.8v4.6h-8.7V491.5z"/>
		<path class="st4" d="M384.2,493l-1.8,17.2h-6.9l-3.6-32.2h4.9l2.7,25.4l2.4-25.4h4.9l2.5,25.6l2.6-25.6h4.4l-3.6,32.2h-6.7
			L384.2,493z"/>
		<path class="st4" d="M404.9,491.5h6.9v4.6h-6.9v9.4h8.7v4.6h-13.8v-32.2h13.8v4.6h-8.7V491.5z"/>
		<path class="st4" d="M432.8,485.3v1.2c0,3.3-1,5.4-3.3,6.5c2.7,1.1,3.8,3.5,3.8,6.9v2.6c0,5-2.6,7.6-7.7,7.6h-8v-32.2h7.6
			C430.5,477.9,432.8,480.4,432.8,485.3z M422.7,482.5v8.5h2c1.9,0,3-0.8,3-3.4v-1.8c0-2.3-0.8-3.3-2.6-3.3H422.7z M422.7,495.6v9.9
			h2.9c1.7,0,2.6-0.8,2.6-3.2v-2.8c0-3-1-3.9-3.3-3.9H422.7z"/>
		<path class="st4" d="M437.2,477.9h5.1v32.2h-5.1V477.9z"/>
		<path class="st4" d="M451.4,486.8v23.3h-4.6v-32.2h6.3l5.2,19.3v-19.3h4.5v32.2h-5.2L451.4,486.8z"/>
		<path class="st4" d="M483.8,510.1h-5.1l-0.9-5.8h-6.2l-0.9,5.8h-4.6l5.2-32.2h7.4L483.8,510.1z M472.3,499.9h4.9l-2.4-16.3
			L472.3,499.9z"/>
		<path class="st4" d="M497.7,510.1c-0.3-0.8-0.5-1.3-0.5-4v-5.1c0-3-1-4.1-3.3-4.1h-1.7v13.1h-5.1v-32.2h7.6c5.2,0,7.5,2.4,7.5,7.4
			v2.5c0,3.3-1.1,5.5-3.3,6.5c2.5,1.1,3.4,3.5,3.4,6.9v5c0,1.6,0,2.7,0.6,3.9H497.7z M492.2,482.5v9.9h2c1.9,0,3-0.8,3-3.4v-3.2
			c0-2.3-0.8-3.3-2.6-3.3H492.2z"/>
	</g>
	<g>
	</g>
	<g>
	</g>
	<g>
	</g>
	<g>
	</g>
	<g>
	</g>
	<g>
	</g>
</g>
</svg>
