<?xml version="1.0" encoding="utf-8"?>
<!-- Generator: Adobe Illustrator 19.1.0, SVG Export Plug-In . SVG Version: 6.00 Build 0)  -->
<svg version="1.1" xmlns="http://www.w3.org/2000/svg" xmlns:xlink="http://www.w3.org/1999/xlink" x="0px" y="0px"
	 viewBox="0 0 612 792" style="enable-background:new 0 0 612 792;" xml:space="preserve">
<style type="text/css">
	.st0{fill:#316A7F;}
	.st1{fill:#FFFFFF;}
	.st2{fill:#6CCEF2;}
	.st3{fill:none;}
	.st4{fill-rule:evenodd;clip-rule:evenodd;fill:#76AE5F;}
	.st5{fill-rule:evenodd;clip-rule:evenodd;fill:#91C67B;}
	.st6{fill-rule:evenodd;clip-rule:evenodd;fill:#FFFFFF;}
	.st7{fill:none;stroke:#FFFFFF;stroke-width:4.7999;stroke-linecap:round;stroke-linejoin:round;stroke-miterlimit:22.9256;}
	.st8{fill:none;stroke:#FFFFFF;stroke-width:20;stroke-miterlimit:10;}
</style>
<g id="Layer_2">
	<rect x="15" y="12.6" class="st0" width="584.1" height="766.9"/>
</g>
<g id="Layer_1">
	<g>
		<g>
			<path class="st1" d="M210.5,86.5v13.9l-31.8,64.2h31.8v13.8H160v-13.9l31.9-64.1l-31.9,0.1V86.5H210.5z"/>
			<path class="st1" d="M220,178.4V86.5h49.2v13.9h-31.9v25.1h23.3v13.9h-23.3v25.1h31.9v13.9H220z"/>
			<path class="st1" d="M306.5,86.5c9.6,0,16.7,2.1,21.2,6.4c4,3.7,5.9,8.9,5.9,15.5v13.3c0,6.5-3.1,12-9.2,16.5l12.8,40.1h-18.7
				L308,143.8c-0.5,0-1,0-1.6,0h-10v34.6h-17.3V86.5H306.5z M316.8,108.7c0-5.3-3.3-8-9.9-8h-10.4v29.4h10.4c2.7,0,5.1-0.8,7-2.3
				c1.9-1.6,2.9-3.4,2.9-5.6V108.7z"/>
			<path class="st1" d="M371.6,85.4c7.6,0,14.1,2.2,19.4,6.5c5.3,4.3,8,9.5,8,15.5v50.2c0,6.1-2.7,11.3-8,15.6
				c-5.4,4.3-11.8,6.4-19.4,6.4c-7.6,0-14.1-2.2-19.4-6.5c-5.3-4.3-8-9.5-8-15.5v-50.2c0-6.1,2.7-11.3,8-15.6
				C357.7,87.5,364.1,85.4,371.6,85.4z M381,107.1c0-2.2-1-4.1-2.9-5.6c-1.9-1.5-4.3-2.3-7-2.3c-2.7,0-5.1,0.8-7,2.3
				c-2,1.5-2.9,3.4-2.9,5.6v50.3c0,2.2,1,4.1,2.9,5.6c2,1.5,4.3,2.3,7,2.3c2.7,0,5.1-0.8,7-2.3c1.9-1.5,2.9-3.4,2.9-5.6V107.1z"/>
		</g>
		<g>
			<path class="st2" d="M210.7,224.2l-2.6,11.7c5.4-6,11.3-12.4,19.1-12.4c5.7,0,8,2.8,8,6.7c0,7.3-5.7,9.3-8.3,9.3
				c-3.3,0-3-3.6-7.1-3.6s-9.1,3.6-13.1,7l-11.3,52.6h-14.2l15.1-71.2H210.7z"/>
			<path class="st2" d="M258.7,224.2l-10.4,48.4c-0.4,1.7-0.7,4.1-0.7,6.4c0,3.3,0.9,6.4,4.4,6.4c4.6,0,9.4-5.8,13.5-15.5h5.3
				c-9.3,23.8-18.5,26.4-24.8,26.4c-9.7,0-12.7-7.3-12.7-15.8c0-3.4,0.6-7.1,1.3-10.5l9.7-45.7H258.7z M254.8,194.1
				c5.1,0,9.5,4.4,9.5,9.5c0,5.3-4.4,9.4-9.5,9.4c-5.3,0-9.4-4.1-9.4-9.4C245.4,198.5,249.6,194.1,254.8,194.1z"/>
			<path class="st2" d="M320.2,269.9c-6.4,7-13,11.5-18.8,15.1c-4.6,8.3-13.1,11.3-19.7,11.3c-14.5,0-20.8-9.5-20.8-18.2
				c0-6.6,3.7-11.4,7.5-13.2c8-14.1,13.1-28.2,17.5-42.2l15-2.8c1.9,36.6,3.6,42.4,3.6,51.8c0,1.7-0.1,3.4-0.3,4.8
				c3.6-2,7.1-4.4,10-6.6H320.2z M286.6,235c-2.6,10.5-6.3,19.9-11.4,30.2c1.1,0.9,2,2.4,2,4.7c0,4.6-3.1,7.1-5.8,7.1
				c-1.4,0-2.6-0.6-3.4-2c0,6.7,3,10.5,9.3,10.5c7.3,0,12.4-3.8,12.4-13.8C289.6,263.9,288.2,259.8,286.6,235z"/>
			<path class="st2" d="M344.3,195.7l-11.1,51.6l29.3-23.1h13.8l-28.2,19.5c0.9-0.1,1.9-0.3,2.7-0.3c11.1,0,14,7.8,14,15.5
				c0,8-3.1,13.7-3.1,19.8c0,5.1,2.3,6.7,5.8,6.7c1.1,0,3.1-0.1,5.1-1c-0.4,7.3-5,11.8-12.5,11.8c-9.7,0-13.5-7.3-13.5-15.7
				c0-7.5,3.1-13,3.1-19.1c0-5.1-2.1-7.3-6-7.3c-5.3,0-10.1,3.6-14.4,11l-6.4,30.2h-14.2l20.9-97.7L344.3,195.7z"/>
		</g>
		<g>
			<rect x="162.4" y="320.5" class="st3" width="306.4" height="119.4"/>
			<path class="st1" d="M168.3,349.6h-4.4v-29.1h4.4V349.6z"/>
			<path class="st1" d="M176,349.6h-4.4v-29.1h12.5v4.4H176v7.9h5.9v4.4H176V349.6z"/>
			<path class="st1" d="M206.8,320.6h4.6l-4.5,29.1h-4.2l-2.5-16l-2.3,16h-4.2l-4.9-29.1h4.6l2.3,15.6l2.1-15.6h4.6l2.3,15.6
				L206.8,320.6z"/>
			<path class="st1" d="M214.5,349.6v-29.1H227v4.4h-8.1v7.9h5.9v4.4h-5.9v7.9h8.1v4.4H214.5z"/>
			<path class="st1" d="M238.6,350c-1.9,0-3.6-0.7-4.9-2c-1.4-1.4-2-3-2-4.9v-15.9c0-1.9,0.7-3.6,2-4.9c1.4-1.4,3-2,4.9-2
				c1.9,0,3.6,0.7,4.9,2c1.3,1.4,2,3,2,4.9v3.3H241v-3.4c0-0.7-0.2-1.3-0.7-1.8s-1.1-0.7-1.8-0.7c-0.7,0-1.3,0.2-1.8,0.7
				s-0.7,1.1-0.7,1.8V343c0,0.7,0.2,1.3,0.7,1.8c0.5,0.5,1.1,0.7,1.8,0.7c0.7,0,1.3-0.2,1.8-0.7c0.5-0.5,0.7-1.1,0.7-1.8v-4h4.5v4.1
				c0,1.9-0.7,3.6-2,4.9C242.2,349.3,240.5,350,238.6,350z"/>
			<path class="st1" d="M253.1,343l-1.1,6.7h-4.6l4.9-29.1h6l4.9,29.1h-4.6l-1-6.7H253.1z M255.4,327.2l-1.6,11.5h3.2L255.4,327.2z"
				/>
			<path class="st1" d="M271.2,320.5l5.8,19.6v-19.6h4.4v29.1h-4.7l-6-18.6v18.6h-4.4v-29.1H271.2z"/>
			<path class="st1" d="M288.2,325.2c1.5,0,2.1,1,2.1,2.2c0,2.2-2.1,5.2-4.2,6.1c-0.2-0.2-0.3-0.4-0.3-0.6c0-1,1.3-2.1,1.3-3.1
				c0-1.2-1.1-0.7-1.1-2.5C286,326,287.1,325.2,288.2,325.2z"/>
			<path class="st1" d="M294.6,325h-4.7v-4.4h13.7v4.4H299v24.7h-4.4V325z"/>
			<path class="st1" d="M315.1,349.6h-4.4v-29.1h12.5v4.4h-8.1v7.9h5.9v4.4h-5.9V349.6z"/>
			<path class="st1" d="M329.9,349.6h-4.4v-29.1h4.4V349.6z"/>
			<path class="st1" d="M338.1,320.5l5.8,19.6v-19.6h4.4v29.1h-4.7l-6-18.6v18.6h-4.4v-29.1H338.1z"/>
			<path class="st1" d="M365.4,342.7c0,1.9-0.7,3.6-2,4.9s-3,2-4.9,2h-6.9v-29.1h6.9c1.9,0,3.5,0.7,4.9,2c1.3,1.4,2,3,2,4.9V342.7z
				 M356,345.3h2.6c0.7,0,1.3-0.3,1.8-0.8s0.7-1.1,0.7-1.8v-15.2c0-0.7-0.2-1.3-0.7-1.8s-1.1-0.7-1.8-0.7H356V345.3z"/>
			<path class="st1" d="M375.8,343l-1.1,6.7h-4.6l4.9-29.1h6l4.9,29.1h-4.6l-1-6.7H375.8z M378.1,327.2l-1.6,11.5h3.2L378.1,327.2z"
				/>
			<path class="st1" d="M404.5,342.7c0,1.9-0.7,3.6-2,4.9s-3,2-4.9,2h-6.9v-29.1h6.9c1.9,0,3.5,0.7,4.9,2c1.3,1.4,2,3,2,4.9V342.7z
				 M395.1,345.3h2.6c0.7,0,1.3-0.3,1.8-0.8s0.7-1.1,0.7-1.8v-15.2c0-0.7-0.2-1.3-0.7-1.8s-1.1-0.7-1.8-0.7h-2.6V345.3z"/>
			<path class="st1" d="M407.7,349.6v-29.1h12.5v4.4h-8.1v7.9h5.9v4.4h-5.9v7.9h8.1v4.4H407.7z"/>
			<path class="st1" d="M428.2,343l-1.1,6.7h-4.6l4.9-29.1h6l4.9,29.1h-4.6l-1-6.7H428.2z M430.5,327.2l-1.6,11.5h3.2L430.5,327.2z"
				/>
			<path class="st1" d="M453.4,349.6h-12v-29.1h4.4v24.7h7.6V349.6z"/>
			<path class="st1" d="M455.7,349.6v-4.4h4.4v4.4l-1.6,3.3h-1.8l1-3.3H455.7z"/>
			<path class="st1" d="M173.3,389.6c-1.9,0-3.6-0.7-4.9-2c-1.4-1.4-2-3-2-4.9v-15.9c0-1.9,0.7-3.6,2-4.9c1.4-1.4,3-2,4.9-2
				c1.9,0,3.6,0.7,4.9,2c1.3,1.4,2,3,2,4.9v3.3h-4.5v-3.4c0-0.7-0.2-1.3-0.7-1.8s-1.1-0.7-1.8-0.7c-0.7,0-1.3,0.2-1.8,0.7
				s-0.7,1.1-0.7,1.8v15.9c0,0.7,0.2,1.3,0.7,1.8c0.5,0.5,1.1,0.7,1.8,0.7c0.7,0,1.3-0.2,1.8-0.7c0.5-0.5,0.7-1.1,0.7-1.8v-4h4.5
				v4.1c0,1.9-0.7,3.6-2,4.9C176.8,388.9,175.2,389.6,173.3,389.6z"/>
			<path class="st1" d="M190,359.8c1.9,0,3.6,0.7,4.9,2c1.4,1.4,2,3,2,4.9v15.9c0,1.9-0.7,3.6-2,4.9c-1.4,1.4-3,2-4.9,2
				c-1.9,0-3.6-0.7-4.9-2c-1.3-1.4-2-3-2-4.9v-15.9c0-1.9,0.7-3.6,2-4.9C186.5,360.5,188.1,359.8,190,359.8z M192.4,366.7
				c0-0.7-0.2-1.3-0.7-1.8s-1.1-0.7-1.8-0.7c-0.7,0-1.3,0.2-1.8,0.7c-0.5,0.5-0.7,1.1-0.7,1.8v15.9c0,0.7,0.2,1.3,0.7,1.8
				c0.5,0.5,1.1,0.7,1.8,0.7c0.7,0,1.3-0.2,1.8-0.7s0.7-1.1,0.7-1.8V366.7z"/>
			<path class="st1" d="M205.1,360.1l5.8,19.6v-19.6h4.4v29.1h-4.7l-6-18.6v18.6h-4.4v-29.1H205.1z"/>
			<path class="st1" d="M232.8,382c0,2-0.5,3.8-1.6,5.2c-0.7,1-1.7,1.7-3,2.1c-0.7,0.2-1.5,0.3-2.4,0.3c-1.7,0-3.1-0.4-4.3-1.3
				c-0.9-0.7-1.7-1.6-2.2-2.8c-0.5-1.2-0.9-2.6-1-4.1l4.2-0.3c0.2,1.7,0.6,2.9,1.3,3.7c0.5,0.6,1.1,0.8,1.8,0.8c1,0,1.7-0.5,2.3-1.4
				c0.3-0.4,0.4-1.1,0.4-1.9c0-1.2-0.5-2.4-1.6-3.6c-0.9-0.8-2.2-2.1-3.9-3.7c-1.5-1.4-2.5-2.7-3.1-3.8c-0.6-1.3-1-2.6-1-4.1
				c0-2.6,0.9-4.7,2.7-6c1.1-0.8,2.5-1.2,4.1-1.2c1.6,0,2.9,0.3,4,1c0.9,0.5,1.6,1.3,2.1,2.3s0.9,2.1,1,3.4l-4.2,0.8
				c-0.1-1.2-0.5-2.1-1-2.8c-0.4-0.5-1-0.7-1.7-0.7c-0.8,0-1.4,0.4-1.8,1.1c-0.3,0.6-0.5,1.3-0.5,2.1c0,1.3,0.6,2.7,1.7,4.1
				c0.4,0.5,1.1,1.1,1.9,1.9c1,0.9,1.7,1.4,2,1.8c1.1,1.1,1.9,2.2,2.5,3.2c0.3,0.5,0.5,1,0.7,1.4C232.6,380.2,232.8,381.2,232.8,382
				z"/>
			<path class="st1" d="M242.7,389.6c-1.9,0-3.6-0.7-4.9-2c-1.3-1.3-2-3-2-4.9v-22.5h4.3v22.4c0,0.7,0.2,1.3,0.7,1.8
				c0.5,0.5,1.1,0.7,1.8,0.7c0.7,0,1.3-0.2,1.8-0.7s0.7-1.1,0.7-1.8v-22.4h4.6v22.5c0,1.9-0.7,3.6-2,4.9
				C246.3,388.9,244.7,389.6,242.7,389.6z"/>
			<path class="st1" d="M264.9,389.2h-12v-29.1h4.4v24.7h7.6V389.2z"/>
			<path class="st1" d="M267.6,364.6h-4.7v-4.4h13.7v4.4H272v24.7h-4.4V364.6z"/>
			<path class="st1" d="M283.9,389.2h-4.4v-29.1h4.4V389.2z"/>
			<path class="st1" d="M292.1,360.1l5.8,19.6v-19.6h4.4v29.1h-4.7l-6-18.6v18.6h-4.4v-29.1H292.1z"/>
			<path class="st1" d="M312.4,389.6c-1.9,0-3.6-0.7-4.9-2c-1.4-1.4-2-3-2-4.9v-15.9c0-1.9,0.7-3.6,2-4.9c1.4-1.4,3-2,4.9-2
				c1.9,0,3.6,0.7,4.9,2c1.3,1.4,2,3,2,4.9v3.3h-4.5v-3.4c0-0.7-0.2-1.3-0.7-1.8s-1.1-0.7-1.8-0.7s-1.3,0.2-1.8,0.7
				s-0.7,1.1-0.7,1.8v15.9c0,0.7,0.2,1.3,0.7,1.8c0.5,0.5,1.1,0.7,1.8,0.7s1.3-0.2,1.8-0.7s0.7-1.1,0.7-1.8v-5.7h-2.4v-4.4h7v10.2
				c0,1.9-0.7,3.6-2,4.9C316,388.9,314.4,389.6,312.4,389.6z"/>
			<path class="st1" d="M330.9,389.2h-4.4v-29.1h4.4V389.2z"/>
			<path class="st1" d="M348.4,382c0,2-0.5,3.8-1.6,5.2c-0.7,1-1.7,1.7-3,2.1c-0.7,0.2-1.5,0.3-2.4,0.3c-1.7,0-3.1-0.4-4.3-1.3
				c-0.9-0.7-1.7-1.6-2.2-2.8c-0.5-1.2-0.9-2.6-1-4.1l4.2-0.3c0.2,1.7,0.6,2.9,1.3,3.7c0.5,0.6,1.1,0.8,1.8,0.8c1,0,1.7-0.5,2.3-1.4
				c0.3-0.4,0.4-1.1,0.4-1.9c0-1.2-0.5-2.4-1.6-3.6c-0.9-0.8-2.2-2.1-3.9-3.7c-1.5-1.4-2.5-2.7-3.1-3.8c-0.6-1.3-1-2.6-1-4.1
				c0-2.6,0.9-4.7,2.7-6c1.1-0.8,2.5-1.2,4.1-1.2c1.6,0,2.9,0.3,4,1c0.9,0.5,1.6,1.3,2.1,2.3s0.9,2.1,1,3.4l-4.2,0.8
				c-0.1-1.2-0.5-2.1-1-2.8c-0.4-0.5-1-0.7-1.7-0.7c-0.8,0-1.4,0.4-1.8,1.1c-0.3,0.6-0.5,1.3-0.5,2.1c0,1.3,0.6,2.7,1.7,4.1
				c0.4,0.5,1.1,1.1,2,1.9c1,0.9,1.7,1.4,2,1.8c1.1,1.1,1.9,2.2,2.5,3.2c0.3,0.5,0.5,1,0.7,1.4C348.1,380.2,348.4,381.2,348.4,382z"
				/>
			<path class="st1" d="M357.5,389.2h-4.4v-29.1h12.5v4.4h-8.1v7.9h5.9v4.4h-5.9V389.2z"/>
			<path class="st1" d="M374.9,360.2c2.4,0,4.2,0.7,5.4,2c1,1.2,1.5,2.8,1.5,4.9v4.2c0,2.1-0.8,3.8-2.3,5.2l3.2,12.7h-4.7l-2.7-11
				c-0.1,0-0.3,0-0.4,0h-2.5v11H368v-29.1H374.9z M377.5,367.2c0-1.7-0.8-2.5-2.5-2.5h-2.6v9.3h2.6c0.7,0,1.3-0.2,1.8-0.7
				c0.5-0.5,0.7-1.1,0.7-1.8V367.2z"/>
			<path class="st1" d="M385.8,389.2v-29.1h12.5v4.4h-8.1v7.9h5.9v4.4h-5.9v7.9h8.1v4.4H385.8z"/>
			<path class="st1" d="M400.6,389.2v-29.1h12.5v4.4H405v7.9h5.9v4.4H405v7.9h8.1v4.4H400.6z"/>
		</g>
		<g>
			<path class="st4" d="M436.6,159.1c-0.4-3.9-3.7-15.5-12.8-31.9c-9.1-16.5-1.8-26.5,12.1-25.9c13.9,0.6,12.1-10.8,23.4-10.8
				c11.3,0,9.5,11.4,23.4,10.8c13.9-0.6,21.2,9.4,12.1,25.9c-9.1,16.5-12.4,28-12.8,31.9C478.5,194,439.9,194,436.6,159.1z"/>
			<path class="st4" d="M458.8,153.2c40.9,0,74,32.9,74,73.4c0,40.6,3.4,73.4-74,73.4c-77.4,0-74-32.9-74-73.4
				C384.8,186.1,418,153.2,458.8,153.2z"/>
			<path class="st5" d="M458.8,153.2c20.5,0,39,8.3,52.4,21.6c4.6,9.6,7.2,20.3,7.2,31.6c0,40.6,3.4,73.4-74,73.4
				c-28.2,0-45.7-4.4-56.5-11.9c-3.6-11.8-3.1-26-3.1-41.3C384.8,186.1,418,153.2,458.8,153.2z"/>
			<path class="st6" d="M428.6,141.4h60.4c2.3,0,4.2,1.9,4.2,4.2l0,0c0,2.3-1.9,4.2-4.2,4.2h-60.4c-2.3,0-4.2-1.9-4.2-4.2l0,0
				C424.4,143.3,426.3,141.4,428.6,141.4z"/>
			<path class="st6" d="M428.6,149.8h60.4c2.3,0,4.2,1.9,4.2,4.2l0,0c0,2.3-1.9,4.2-4.2,4.2h-60.4c-2.3,0-4.2-1.9-4.2-4.2l0,0
				C424.4,151.7,426.3,149.8,428.6,149.8z"/>
			<path class="st1" d="M466.8,187.7c3.4,0.9,6.2,2.5,8.4,4.6c3.1,3,5.1,7,6,12l-12.6,1.7c-0.3-1.8-0.9-3.3-1.8-4.5V187.7
				L466.8,187.7z M466.8,218.8c5.7,2,9.8,4.3,12.1,7.1c2.9,3.4,4.4,7.9,4.4,13.3c0,6-1.8,11.1-5.5,15.2c-2.8,3.2-6.5,5.4-11,6.7
				v-11.9c0.7-0.5,1.3-1.1,1.9-1.7c1.6-1.9,2.4-4,2.4-6.5c0-2.2-0.7-4.1-2-5.8c-0.6-0.7-1.3-1.4-2.3-1.9V218.8z M455.3,250.3v-20.9
				c-1.1-0.3-2.2-0.7-3.2-1.1v-15.1c0.9,0.7,2,1.4,3.2,1.9v-17.3c-1.2,0.4-2.3,1-3.2,1.8v-12.2c1-0.2,2.1-0.4,3.2-0.5V182h7.2v4.9
				c1.5,0.2,2.9,0.5,4.2,0.8v13.7c-1-1.5-2.4-2.7-4.2-3.5v19.5c1.5,0.4,2.9,0.8,4.2,1.3v14.5c-1.2-0.7-2.6-1.3-4.2-1.8V251
				c1.6-0.3,3-0.9,4.2-1.7v11.9c-1.3,0.4-2.7,0.7-4.2,0.9v9.4h-7.2v-9.1c-1.1-0.1-2.2-0.3-3.2-0.6V248
				C453.1,249,454.2,249.8,455.3,250.3z M452.1,228.3c-4.9-1.8-8.6-4.3-11.2-7.4c-3-3.8-4.6-8.4-4.6-13.8c0-5.5,1.7-10.1,5.2-13.8
				c2.8-3,6.3-5,10.6-5.9v12.2c-0.5,0.5-1,1-1.5,1.6c-1.2,1.6-1.7,3.4-1.7,5.3c0,1.8,0.5,3.4,1.6,4.9c0.5,0.6,1,1.2,1.6,1.8V228.3
				L452.1,228.3z M452.1,261.7c-4.3-1-7.9-3-10.8-5.9c-3.6-3.6-5.9-8.7-6.9-15.2l13.1-1.4c0.5,2.7,1.5,5,3,6.9
				c0.5,0.7,1.1,1.3,1.7,1.9V261.7z"/>
			<path class="st7" d="M482.2,154.9c11.2,13.3,16.8,29.6,12,55.1"/>
			<path class="st7" d="M482.2,154.9c15.5,7.9,27,20.7,32.5,46"/>
			<path class="st5" d="M426.7,132.7c-0.9-1.8-1.9-3.7-3-5.6c-9.1-16.5-1.8-26.5,12.1-25.9c13.9,0.6,12.1-10.8,23.4-10.8
				c11.3,0,9.5,11.4,23.4,10.8c2.7-0.1,5.1,0.2,7.3,0.8c-1.8,5.2-2.7,8.9-3.6,11.3C477.7,134.6,448.1,140.3,426.7,132.7z"/>
		</g>
	</g>
	<path class="st1" d="M94.7,378c2.3,5.9,6.1,6,8.5,0.1l56.9-136.9c2.4-5.8,1.2-8.4-2.7-5.7l-27.1,18.8c-3.9,2.7-7.2-0.9-7.1-7.9
		l2.1-141.7c0.1-7.1-2.7-14.5-6.9-14.6l-31.9-0.5c-4.2-0.1-9.1,7.3-9.2,14.4l-2.1,141.3c-0.1,7.1-2.6,10.5-6.4,7.6l-24.6-19
		c-3.8-2.9-4.9-0.4-2.6,5.5L94.7,378z"/>
	<path class="st1" d="M232.7,487c1.3-0.5,1.3-1.3,0-1.9l-29.9-12.4c-1.3-0.5-1.8-0.3-1.2,0.6l4.1,5.9c0.6,0.8-0.2,1.6-1.7,1.6
		l-30.9-0.5c-1.5,0-3.2,0.6-3.2,1.5l-0.1,7c0,0.9,1.6,2,3.1,2l30.8,0.5c1.5,0,2.3,0.6,1.7,1.4l-4.2,5.4c-0.6,0.8-0.1,1.1,1.2,0.6
		L232.7,487z"/>
	<g>
		<path class="st2" d="M255,442.8h-3.1v-20.4h3.1V442.8z"/>
		<path class="st2" d="M261.7,422.4l4.1,13.7v-13.7h3.1v20.4h-3.3l-4.2-13.1v13.1h-3.1v-20.4H261.7z"/>
		<path class="st2" d="M277.2,425.5H274v-3.1h9.6v3.1h-3.3v17.3h-3.1V425.5z"/>
		<path class="st2" d="M289.6,434.1v8.6h-3.1v-20.4h3.1v8.7h3.7v-8.7h3.1v20.4h-3.1v-8.6H289.6z"/>
		<path class="st2" d="M304.4,422.4c1.7,0,3,0.5,3.8,1.4c0.7,0.8,1.1,2,1.1,3.4v3c0,1.4-0.5,2.7-1.6,3.7l2.3,8.9h-3.3l-1.9-7.7
			c-0.1,0-0.2,0-0.3,0h-1.8v7.7h-3.1v-20.4H304.4z M306.2,427.3c0-1.2-0.6-1.8-1.8-1.8h-1.9v6.5h1.9c0.5,0,0.9-0.2,1.2-0.5
			c0.3-0.3,0.5-0.8,0.5-1.3V427.3z"/>
		<path class="st2" d="M313,442.8v-20.4h8.8v3.1H316v5.6h4.1v3.1H316v5.6h5.7v3.1H313z"/>
		<path class="st2" d="M324.3,442.8v-20.4h8.8v3.1h-5.7v5.6h4.1v3.1h-4.1v5.6h5.7v3.1H324.3z"/>
		<path class="st2" d="M341.2,442.8h-3.1v-20.4h4.4l2.9,14.7l2.8-14.7h4.2v20.4h-3.1v-12.8l-2.7,12.8h-2.5l-3-12.8V442.8z"/>
		<path class="st2" d="M360.5,422.1c1.4,0,2.5,0.5,3.5,1.4c0.9,1,1.4,2.1,1.4,3.4v11.1c0,1.4-0.5,2.5-1.4,3.5
			c-1,0.9-2.1,1.4-3.4,1.4c-1.4,0-2.5-0.5-3.4-1.4c-0.9-1-1.4-2.1-1.4-3.4V427c0-1.4,0.5-2.5,1.4-3.5
			C358,422.6,359.1,422.1,360.5,422.1z M362.1,426.9c0-0.5-0.2-0.9-0.5-1.2c-0.3-0.3-0.8-0.5-1.2-0.5c-0.5,0-0.9,0.2-1.3,0.5
			c-0.3,0.3-0.5,0.8-0.5,1.2v11.2c0,0.5,0.2,0.9,0.5,1.2c0.3,0.3,0.8,0.5,1.3,0.5c0.5,0,0.9-0.2,1.2-0.5c0.3-0.3,0.5-0.8,0.5-1.2
			V426.9z"/>
		<path class="st2" d="M372,422.4l4.1,13.7v-13.7h3.1v20.4h-3.3l-4.2-13.1v13.1h-3.1v-20.4H372z"/>
		<path class="st2" d="M385.3,425.5H382v-3.1h9.6v3.1h-3.3v17.3h-3.1V425.5z"/>
		<path class="st2" d="M397.6,434.1v8.6h-3.1v-20.4h3.1v8.7h3.7v-8.7h3.1v20.4h-3.1v-8.6H397.6z"/>
		<path class="st2" d="M417.6,437.7c0,1.4-0.3,2.6-1.1,3.6c-0.5,0.7-1.2,1.2-2.1,1.4c-0.5,0.2-1.1,0.2-1.7,0.2c-1.2,0-2.2-0.3-3-0.9
			c-0.7-0.5-1.2-1.2-1.6-2c-0.4-0.8-0.6-1.8-0.7-2.9l2.9-0.2c0.1,1.2,0.4,2,0.9,2.6c0.4,0.4,0.8,0.6,1.3,0.6c0.7,0,1.2-0.4,1.6-1
			c0.2-0.3,0.3-0.8,0.3-1.4c0-0.8-0.4-1.7-1.2-2.5c-0.6-0.6-1.5-1.4-2.7-2.6c-1-1-1.7-1.9-2.2-2.7c-0.5-0.9-0.7-1.8-0.7-2.9
			c0-1.9,0.6-3.3,1.9-4.2c0.8-0.6,1.7-0.9,2.9-0.9c1.1,0,2,0.2,2.8,0.7c0.6,0.4,1.1,0.9,1.5,1.6c0.4,0.7,0.6,1.5,0.7,2.4l-2.9,0.5
			c-0.1-0.8-0.3-1.5-0.7-2c-0.3-0.3-0.7-0.5-1.2-0.5c-0.6,0-1,0.2-1.3,0.7c-0.2,0.4-0.4,0.9-0.4,1.5c0,0.9,0.4,1.9,1.2,2.8
			c0.3,0.4,0.8,0.8,1.4,1.3c0.7,0.6,1.2,1,1.4,1.3c0.8,0.8,1.3,1.5,1.8,2.2c0.2,0.3,0.4,0.7,0.5,1
			C417.5,436.5,417.6,437.1,417.6,437.7z"/>
		<path class="st2" d="M435.4,422.4h3.2l-3.2,20.4h-2.9l-1.8-11.2l-1.6,11.2h-2.9l-3.4-20.4h3.2l1.6,10.9l1.5-10.9h3.2l1.6,10.9
			L435.4,422.4z"/>
		<path class="st2" d="M441.7,442.8v-20.4h8.8v3.1h-5.7v5.6h4.1v3.1h-4.1v5.6h5.7v3.1H441.7z"/>
		<path class="st2" d="M460.4,443c-1.4,0-2.5-0.5-3.5-1.4c-0.9-1-1.4-2.1-1.4-3.4V427c0-1.4,0.5-2.5,1.4-3.5c1-0.9,2.1-1.4,3.4-1.4
			c1.4,0,2.5,0.5,3.4,1.4c0.9,1,1.4,2.1,1.4,3.4v2.3h-3.2V427c0-0.5-0.2-0.9-0.5-1.3c-0.3-0.3-0.8-0.5-1.3-0.5
			c-0.5,0-0.9,0.2-1.2,0.5c-0.3,0.3-0.5,0.8-0.5,1.3v11.2c0,0.5,0.2,0.9,0.5,1.2c0.3,0.3,0.8,0.5,1.2,0.5c0.5,0,0.9-0.2,1.3-0.5
			c0.3-0.3,0.5-0.8,0.5-1.2v-4h-1.7V431h4.9v7.1c0,1.4-0.5,2.5-1.4,3.4C462.9,442.6,461.8,443,460.4,443z"/>
		<path class="st2" d="M471.8,438.1l-0.7,4.7h-3.2l3.5-20.4h4.2l3.4,20.4h-3.2l-0.7-4.7H471.8z M473.4,427.1l-1.1,8h2.3L473.4,427.1
			z"/>
		<path class="st2" d="M482.5,442.8l-3.6-20.4h3.2l2.6,15.9l2.6-15.9h3.2l-3.7,20.4H482.5z"/>
		<path class="st2" d="M493.4,442.8v-20.4h8.8v3.1h-5.7v5.6h4.1v3.1h-4.1v5.6h5.7v3.1H493.4z"/>
		<path class="st1" d="M265.4,499.3c-4.8-0.4-8.2-2.9-8.2-7.9c0-3.9,2.2-6,4.4-6c1.1,0,2,0.5,2.9,1.6c-2,0.3-2.8,2.9-2.8,4.7
			c0,2.9,1.9,4.6,4.1,5.1l2.5-14.3c-3.6-2.7-7.6-5.1-7.6-9.7c0-5.3,5.2-8.8,11-8.9l1.3-7.4h3.1l-1.7,7.6c3.3,0.5,6.5,2.2,6.5,5.9
			c0,2-0.9,5.2-2.9,5.2c-0.5,0-1.5-0.2-2.5-1.3c1.1-1.1,1.6-2.7,1.6-3.9c0-1.8-1.1-3.3-3.2-3.9l-2.7,11.9c3.9,2.5,8.3,5.2,8.3,11
			c0,6.7-5.8,10.2-13,10.2l-2,9.4h-0.9L265.4,499.3z M269.5,476.9l1.9-10.8c-3.9,0.4-5.3,3.5-5.3,5.8
			C266.1,473.9,267.5,475.5,269.5,476.9z M270.1,483.8l-2.9,13.2c3.5,0,6.5-2.7,6.5-6.7C273.7,487.5,272.2,485.6,270.1,483.8z"/>
		<path class="st1" d="M280,493.6c0-6.4,3.9-13.5,12.2-16c-3.9-2.4-5.5-5.9-5.5-9.5c0-6.7,5.7-13.8,14.9-13.8
			c7.5,0,11.7,4.8,11.7,10.2c0,4.7-3.2,10-9.4,13.1c6,2,8.1,7.1,8.1,11.4c0,8.3-7.6,18.2-18.4,18.2C284.9,507.3,280,500.8,280,493.6
			z M303.9,490.5c0-4.2-2.5-7.3-6.5-10.2c-6.2,2-10.3,8.1-10.3,13.5c0,3.9,2.1,8.5,6.9,8.5C299.5,502.3,303.9,496.1,303.9,490.5z
			 M307,463.1c0-2.9-1.6-5.9-5.3-5.9c-4.6,0-8.1,4.7-8.1,9.5c0,3.3,1.6,6.7,4.9,8.8C303.9,472.5,307,467.2,307,463.1z"/>
		<path class="st1" d="M349.9,496l17-40.8h8l-7.4,51.6h-8l5.2-36.6l-15.3,36.6H342l1.6-35.9l-13.3,35.9H326l18.2-49.1
			c-7.9,1.7-12.2,7.9-12.2,16.7c0,3.4,0.5,4.2,1,4.8c-4.1,0-6.8-1.8-6.8-6.3c0-9.6,13-18.7,21.4-18.7c1.5,0,3,0.3,4.1,1L349.9,496z"
			/>
		<path class="st1" d="M387.7,471.8l-5.1,23.8c-0.2,0.8-0.4,2-0.4,3.2c0,1.6,0.4,3.2,2.2,3.2c2.2,0,4.6-2.9,6.7-7.6h2.6
			c-4.6,11.7-9.1,13-12.2,13c-4.8,0-6.2-3.6-6.2-7.8c0-1.7,0.3-3.5,0.6-5.2l4.8-22.5H387.7z M385.8,457c2.5,0,4.7,2.2,4.7,4.7
			c0,2.6-2.2,4.6-4.7,4.6c-2.6,0-4.6-2-4.6-4.6C381.2,459.2,383.2,457,385.8,457z"/>
		<path class="st1" d="M405.9,457.8l-8.2,37.9c-0.2,0.8-0.4,2-0.4,3.2c0,1.6,0.4,3.2,2.2,3.2c2.2,0,4.6-2.9,6.7-7.6h2.6
			c-4.6,11.7-9.1,13-12.2,13c-4.8,0-6.2-3.6-6.2-7.8c0-1.7,0.3-3.5,0.6-5.2l7.6-35.6L405.9,457.8z"/>
		<path class="st1" d="M421.1,457.8l-8.2,37.9c-0.2,0.8-0.4,2-0.4,3.2c0,1.6,0.4,3.2,2.2,3.2c2.2,0,4.6-2.9,6.7-7.6h2.6
			c-4.6,11.7-9.1,13-12.2,13c-4.8,0-6.2-3.6-6.2-7.8c0-1.7,0.3-3.5,0.6-5.2l7.6-35.6L421.1,457.8z"/>
		<path class="st1" d="M433.2,471.8l-5.1,23.8c-0.2,0.8-0.4,2-0.4,3.2c0,1.6,0.4,3.2,2.2,3.2c2.2,0,4.6-2.9,6.7-7.6h2.6
			c-4.6,11.7-9.1,13-12.2,13c-4.8,0-6.2-3.6-6.2-7.8c0-1.7,0.3-3.5,0.6-5.2l4.8-22.5H433.2z M431.3,457c2.5,0,4.7,2.2,4.7,4.7
			c0,2.6-2.2,4.6-4.7,4.6c-2.6,0-4.6-2-4.6-4.6C426.7,459.2,428.7,457,431.3,457z"/>
		<path class="st1" d="M462.2,482.6c4.2,0,8-1.4,11.5-4.2l0.6,1.9c-2.6,3-7.2,5.1-12.3,5.8c-0.8,12.1-6.6,21.3-15.2,21.3
			c-6.1,0-10.9-3.1-10.9-11.1c0-8.1,3.9-24.8,18.4-24.8C459.9,471.5,462.2,475.4,462.2,482.6z M458.7,486.2c-2.3,0-2.8-1.2-2.8-2.9
			c0-2.4,1.3-3.4,3-3.6c-0.4-3.3-1.9-4.4-4.2-4.4c-7.1,0-11,12.6-11,19.6c0,4.8,1.5,7,5.9,7C453.8,502,457.7,496.1,458.7,486.2z"/>
		<path class="st1" d="M492.5,502c0.6,0,1.3-0.1,2.2-0.5c-0.4,5.1-4.2,5.8-6.1,5.8c-3.5,0-6-2.7-6-7.9c0-6,3.4-13.8,3.4-18.8
			c0-2.3-0.7-3.9-3.1-3.9c-2.9,0-5.5,2.5-7.8,7.5l-4.8,22.6h-7l7.4-35.1h7.1l-1.1,5.3c3.6-4.9,7.1-5.6,9.5-5.6
			c5.7,0,7.2,3.6,7.2,7.9c0,6.2-3.4,13.8-3.4,18.9C490,500.9,490.9,502,492.5,502z"/>
		<path class="st2" d="M250.5,546.4v-21.7h4.9c1.3,0,2.5,0.3,3.5,1c0.9,0.6,1.5,1.5,1.9,2.7c0.2,0.6,0.3,1.4,0.3,2.3
			c0,1.5-0.4,2.6-1.2,3.5c-0.3,0.4-0.7,0.7-1.1,0.8c0.7,0.3,1.3,0.8,1.8,1.6c0.3,0.6,0.6,1.3,0.7,2.1c0.1,0.4,0.1,1,0.1,1.5
			c0,1.4-0.3,2.5-0.8,3.5c-0.4,0.7-1,1.3-1.7,1.8c-0.8,0.5-1.7,0.8-2.5,0.8H250.5z M254,533.6h1.4c1,0,1.7-0.5,2-1.5
			c0.1-0.4,0.2-0.8,0.2-1.4c0-0.9-0.2-1.6-0.7-2c-0.4-0.4-0.9-0.6-1.6-0.6H254V533.6z M254,543.2h1.4c1.1,0,1.9-0.6,2.3-1.7
			c0.1-0.4,0.2-0.8,0.2-1.3c0-1.2-0.2-2.1-0.7-2.6c-0.4-0.5-1-0.8-1.8-0.8H254V543.2z"/>
		<path class="st2" d="M268.4,541.4l-0.8,5h-3.4l3.7-21.7h4.5l3.6,21.7h-3.4l-0.8-5H268.4z M270.1,529.7l-1.2,8.5h2.4L270.1,529.7z"
			/>
		<path class="st2" d="M284,546.7c-1.4,0-2.7-0.5-3.7-1.5c-1-1-1.5-2.2-1.5-3.7v-11.8c0-1.4,0.5-2.7,1.5-3.7c1-1,2.2-1.5,3.7-1.5
			c1.4,0,2.7,0.5,3.7,1.5c1,1,1.5,2.2,1.5,3.7v2.5h-3.4v-2.5c0-0.5-0.2-1-0.6-1.3c-0.4-0.4-0.8-0.6-1.3-0.6c-0.5,0-1,0.2-1.3,0.6
			c-0.4,0.4-0.5,0.8-0.5,1.3v11.9c0,0.5,0.2,1,0.5,1.3c0.4,0.4,0.8,0.5,1.3,0.5c0.5,0,1-0.2,1.3-0.5c0.4-0.4,0.6-0.8,0.6-1.3v-3h3.4
			v3c0,1.4-0.5,2.7-1.5,3.7C286.6,546.2,285.4,546.7,284,546.7z"/>
		<path class="st2" d="M295.6,539.5v6.9h-3.3v-21.7h3.3v7.7l4-7.7h3.5l-4.5,8.8l5.2,12.8H300l-3.4-8.8L295.6,539.5z"/>
		<path class="st2" d="M312.7,528h-3.5v-3.3h10.2v3.3H316v18.4h-3.3V528z"/>
		<path class="st2" d="M327.4,524.5c1.4,0,2.7,0.5,3.7,1.5c1,1,1.5,2.2,1.5,3.7v11.8c0,1.4-0.5,2.7-1.5,3.7c-1,1-2.2,1.5-3.7,1.5
			c-1.4,0-2.7-0.5-3.7-1.5s-1.5-2.2-1.5-3.7v-11.8c0-1.4,0.5-2.7,1.5-3.7C324.7,525,325.9,524.5,327.4,524.5z M329.1,529.6
			c0-0.5-0.2-1-0.5-1.3c-0.4-0.4-0.8-0.5-1.3-0.5s-1,0.2-1.3,0.5c-0.4,0.4-0.6,0.8-0.6,1.3v11.9c0,0.5,0.2,1,0.6,1.3
			c0.4,0.4,0.8,0.5,1.3,0.5s1-0.2,1.3-0.5c0.4-0.4,0.5-0.8,0.5-1.3V529.6z"/>
		<path class="st2" d="M343.2,524.5c1.4,0,2.7,0.5,3.7,1.5c1,1,1.5,2.2,1.5,3.7v11.8c0,1.4-0.5,2.7-1.5,3.7c-1,1-2.2,1.5-3.7,1.5
			c-1.4,0-2.7-0.5-3.7-1.5s-1.5-2.2-1.5-3.7v-11.8c0-1.4,0.5-2.7,1.5-3.7C340.6,525,341.8,524.5,343.2,524.5z M345,529.6
			c0-0.5-0.2-1-0.5-1.3c-0.4-0.4-0.8-0.5-1.3-0.5c-0.5,0-1,0.2-1.3,0.5c-0.4,0.4-0.6,0.8-0.6,1.3v11.9c0,0.5,0.2,1,0.6,1.3
			c0.4,0.4,0.8,0.5,1.3,0.5c0.5,0,1-0.2,1.3-0.5c0.4-0.4,0.5-0.8,0.5-1.3V529.6z"/>
		<path class="st2" d="M356.9,546.6c-1.4,0-2.7-0.5-3.7-1.5c-1-1-1.5-2.2-1.5-3.6v-16.7h3.2v16.7c0,0.5,0.2,1,0.6,1.3
			c0.4,0.4,0.8,0.5,1.3,0.5s1-0.2,1.3-0.5c0.4-0.4,0.5-0.8,0.5-1.3v-16.7h3.4v16.7c0,1.5-0.5,2.7-1.5,3.7
			C359.5,546.2,358.3,546.6,356.9,546.6z"/>
		<path class="st2" d="M370.6,524.7c1.8,0,3.2,0.5,4,1.5c0.7,0.9,1.1,2.1,1.1,3.7v3.1c0,1.5-0.6,2.8-1.7,3.9l2.4,9.5h-3.5l-2-8.2
			c-0.1,0-0.2,0-0.3,0h-1.9v8.2h-3.3v-21.7H370.6z M372.6,530c0-1.3-0.6-1.9-1.9-1.9h-2v6.9h2c0.5,0,1-0.2,1.3-0.6
			c0.4-0.4,0.5-0.8,0.5-1.3V530z"/>
		<path class="st2" d="M387.1,546.7c-1.4,0-2.7-0.5-3.7-1.5c-1-1-1.5-2.2-1.5-3.7v-11.8c0-1.4,0.5-2.7,1.5-3.7c1-1,2.2-1.5,3.7-1.5
			c1.4,0,2.7,0.5,3.7,1.5c1,1,1.5,2.2,1.5,3.7v2.5h-3.4v-2.5c0-0.5-0.2-1-0.6-1.3c-0.4-0.4-0.8-0.6-1.3-0.6c-0.5,0-1,0.2-1.3,0.6
			c-0.4,0.4-0.5,0.8-0.5,1.3v11.9c0,0.5,0.2,1,0.5,1.3c0.4,0.4,0.8,0.5,1.3,0.5c0.5,0,1-0.2,1.3-0.5c0.4-0.4,0.6-0.8,0.6-1.3v-3h3.4
			v3c0,1.4-0.5,2.7-1.5,3.7C389.7,546.2,388.5,546.7,387.1,546.7z"/>
		<path class="st2" d="M400.5,546.6c-1.4,0-2.7-0.5-3.7-1.5c-1-1-1.5-2.2-1.5-3.6v-16.7h3.2v16.7c0,0.5,0.2,1,0.6,1.3
			c0.4,0.4,0.8,0.5,1.3,0.5s1-0.2,1.3-0.5c0.4-0.4,0.5-0.8,0.5-1.3v-16.7h3.4v16.7c0,1.5-0.5,2.7-1.5,3.7
			C403.2,546.2,402,546.6,400.5,546.6z"/>
		<path class="st2" d="M419.7,541c0,1.5-0.4,2.8-1.2,3.9c-0.5,0.7-1.3,1.2-2.2,1.5c-0.5,0.2-1.1,0.2-1.8,0.2c-1.3,0-2.3-0.3-3.2-1
			c-0.7-0.5-1.3-1.2-1.7-2.1s-0.6-1.9-0.7-3.1l3.1-0.2c0.1,1.3,0.5,2.2,1,2.7c0.4,0.4,0.8,0.6,1.3,0.6c0.7,0,1.3-0.4,1.7-1.1
			c0.2-0.3,0.3-0.8,0.3-1.4c0-0.9-0.4-1.8-1.2-2.7c-0.6-0.6-1.6-1.5-2.9-2.8c-1.1-1-1.8-2-2.3-2.8c-0.5-0.9-0.7-1.9-0.7-3
			c0-2,0.7-3.5,2-4.5c0.8-0.6,1.8-0.9,3-0.9c1.2,0,2.2,0.3,3,0.8c0.6,0.4,1.2,1,1.6,1.7c0.4,0.7,0.6,1.6,0.7,2.5l-3.1,0.6
			c-0.1-0.9-0.3-1.6-0.8-2.1c-0.3-0.4-0.7-0.5-1.3-0.5c-0.6,0-1.1,0.3-1.4,0.8c-0.3,0.4-0.4,1-0.4,1.6c0,1,0.4,2,1.3,3
			c0.3,0.4,0.8,0.9,1.5,1.4c0.8,0.6,1.3,1.1,1.5,1.3c0.8,0.8,1.4,1.6,1.9,2.4c0.2,0.4,0.4,0.7,0.5,1
			C419.5,539.7,419.7,540.4,419.7,541z"/>
		<path class="st2" d="M425.9,528h-3.5v-3.3h10.2v3.3h-3.5v18.4h-3.3V528z"/>
		<path class="st2" d="M440.5,524.5c1.4,0,2.7,0.5,3.7,1.5c1,1,1.5,2.2,1.5,3.7v11.8c0,1.4-0.5,2.7-1.5,3.7c-1,1-2.2,1.5-3.7,1.5
			c-1.4,0-2.7-0.5-3.7-1.5c-1-1-1.5-2.2-1.5-3.7v-11.8c0-1.4,0.5-2.7,1.5-3.7C437.9,525,439.1,524.5,440.5,524.5z M442.3,529.6
			c0-0.5-0.2-1-0.5-1.3c-0.4-0.4-0.8-0.5-1.3-0.5s-1,0.2-1.3,0.5c-0.4,0.4-0.6,0.8-0.6,1.3v11.9c0,0.5,0.2,1,0.6,1.3
			c0.4,0.4,0.8,0.5,1.3,0.5s1-0.2,1.3-0.5c0.4-0.4,0.5-0.8,0.5-1.3V529.6z"/>
		<path class="st2" d="M452.3,546.4h-3.3v-21.7h4.7l3,15.6l2.9-15.6h4.5v21.7H461v-13.6l-2.8,13.6h-2.6l-3.2-13.6V546.4z"/>
		<path class="st2" d="M467.6,546.4v-21.7h9.3v3.3h-6v5.9h4.4v3.3h-4.4v5.9h6v3.3H467.6z"/>
		<path class="st2" d="M484.8,524.7c1.8,0,3.2,0.5,4,1.5c0.7,0.9,1.1,2.1,1.1,3.7v3.1c0,1.5-0.6,2.8-1.7,3.9l2.4,9.5h-3.5l-2-8.2
			c-0.1,0-0.2,0-0.3,0h-1.9v8.2h-3.3v-21.7H484.8z M486.8,530c0-1.3-0.6-1.9-1.9-1.9h-2v6.9h2c0.5,0,1-0.2,1.3-0.6
			c0.4-0.4,0.5-0.8,0.5-1.3V530z"/>
		<path class="st2" d="M503.6,541c0,1.5-0.4,2.8-1.2,3.9c-0.5,0.7-1.3,1.2-2.2,1.5c-0.5,0.2-1.1,0.2-1.8,0.2c-1.3,0-2.3-0.3-3.2-1
			c-0.7-0.5-1.3-1.2-1.7-2.1c-0.4-0.9-0.6-1.9-0.7-3.1l3.1-0.2c0.1,1.3,0.5,2.2,1,2.7c0.4,0.4,0.8,0.6,1.3,0.6
			c0.7,0,1.3-0.4,1.7-1.1c0.2-0.3,0.3-0.8,0.3-1.4c0-0.9-0.4-1.8-1.2-2.7c-0.6-0.6-1.6-1.5-2.9-2.8c-1.1-1-1.8-2-2.3-2.8
			c-0.5-0.9-0.7-1.9-0.7-3c0-2,0.7-3.5,2-4.5c0.8-0.6,1.8-0.9,3-0.9c1.2,0,2.2,0.3,3,0.8c0.6,0.4,1.2,1,1.6,1.7
			c0.4,0.7,0.6,1.6,0.7,2.5l-3.1,0.6c-0.1-0.9-0.3-1.6-0.8-2.1c-0.3-0.4-0.7-0.5-1.3-0.5c-0.6,0-1.1,0.3-1.4,0.8
			c-0.3,0.4-0.4,1-0.4,1.6c0,1,0.4,2,1.3,3c0.3,0.4,0.8,0.9,1.5,1.4c0.8,0.6,1.3,1.1,1.5,1.3c0.8,0.8,1.4,1.6,1.9,2.4
			c0.2,0.4,0.4,0.7,0.5,1C503.4,539.7,503.6,540.4,503.6,541z"/>
	</g>
	<g>
		<g>
			<g>
				<path class="st1" d="M149.3,733.7c-2.2,2.2-5.6,2.2-7.8,0l-8.3-8.3c-2.2-2.1-2.2-5.6,0-7.8l0,0c2.2-2.2,5.6-2.2,7.8,0l8.3,8.3
					C151.5,728,151.5,731.5,149.3,733.7L149.3,733.7z"/>
				<path class="st1" d="M139.6,743.4c-2.2,2.2-5.9,1.9-8.3-0.5l-11.8-11.8c-2.4-2.4-2.7-6.2-0.5-8.3l0,0c2.1-2.1,5.9-1.9,8.3,0.5
					l11.8,11.8C141.5,737.5,141.8,741.2,139.6,743.4L139.6,743.4z"/>
				<path class="st1" d="M129.9,753.1c-2.1,2.2-5.9,1.9-8.3-0.5l-10.1-10.1c-2.4-2.4-2.7-6.2-0.5-8.3l0,0c2.1-2.1,5.9-1.9,8.3,0.5
					l10.1,10.1C131.8,747.2,132.1,751,129.9,753.1L129.9,753.1z"/>
				<path class="st1" d="M108.6,744.4l-0.3,0.3c0.1,0,0.3-0.1,0.4-0.1C108.7,744.5,108.7,744.4,108.6,744.4z"/>
				<path class="st1" d="M120.2,762.8c-2.2,2.2-5.9,1.9-8.3-0.5l-4.7-4.7c-2.4-2.4-2.7-6.2-0.5-8.3l0,0c2.2-2.2,5.9-1.9,8.3,0.5
					l4.7,4.7C122.1,756.9,122.4,760.7,120.2,762.8L120.2,762.8z"/>
				<path class="st1" d="M131.2,668.6l-16.7,0c-0.2,0-0.4,0-0.6,0.1H92.2c-2.8,0-6.8,1.7-8.8,3.7l-26.1,26.5c-2,2-2,5.3,0,7.3
					l12.1,12.1c2,2,5.3,2,7.3,0l35.5-35.5c1.3-1.3,3.4-2.4,5.5-3.1l13.5,0c3.5,0,6.3-2.5,6.3-5.5
					C137.5,671.1,134.7,668.6,131.2,668.6z"/>
				<path class="st1" d="M83.6,660.6l-9.7-14.7c-2-2-5.3-2-7.3,0l-34.7,34c-2,2-2,5.3,0,7.3l15.4,9.7c2,2,5.3,2,7.3,0l29-29
					C85.6,665.9,85.6,662.6,83.6,660.6z M44.9,689.7c-1.8,0-3.3-1.5-3.3-3.3s1.5-3.3,3.3-3.3c1.8,0,3.3,1.5,3.3,3.3
					S46.7,689.7,44.9,689.7z"/>
				<path class="st1" d="M138,669.5l29,29c2,2,5.3,2,7.3,0l15.4-9.7c2-2,2-5.3,0-7.3l-34.7-34c-2-2-5.3-2-7.3,0l-9.7,14.7
					C135.9,664.2,135.9,667.5,138,669.5z M173.4,687.9c0-1.8,1.5-3.3,3.3-3.3s3.3,1.5,3.3,3.3s-1.5,3.3-3.3,3.3
					S173.4,689.8,173.4,687.9z"/>
				<path class="st1" d="M164.2,698.9l-23.4-23.4c-0.3,1.9-1.3,3.8-2.9,5.1c-1.8,1.6-4.2,2.5-6.7,2.5l-12.9,0
					c-1.5,0.5-2.9,1.3-3.6,2.1l-35.5,35.5c-1.3,1.3-3,2.1-4.8,2.4l-0.5,0.5c-2.2,2.2-2.2,5.6,0,7.8c2.1,2.2,5.6,2.2,7.8,0L102,711
					c0.3-0.3,0.7-0.5,1.1-0.5c0.9,0,1.5,0.7,1.5,1.5c0,0.4-0.2,0.8-0.5,1.1l0,0l-24.1,24.1c-2.4,2.4-2.7,6.2-0.5,8.3
					c2.1,2.1,5.9,1.9,8.3-0.5L112,721c0.3-0.3,0.7-0.5,1.1-0.5c0.9,0,1.5,0.7,1.5,1.5c0,0.4-0.2,0.8-0.5,1.1l0,0l-23.6,23.6
					c-2.4,2.4-2.7,6.2-0.5,8.3c2.2,2.2,5.9,1.9,8.3-0.5l3.7-3.7c0.4-1.5,1.1-2.9,2.2-4.1c1.1-1.1,2.5-1.9,4.1-2.2l0.3-0.3
					c-1.5-1.7-2.4-3.8-2.6-6c-0.2-2.5,0.7-5,2.5-6.7c1.6-1.6,3.7-2.4,6-2.5c-0.3-0.9-0.5-1.9-0.5-2.8c0-2.3,0.9-4.5,2.5-6.1
					c1.6-1.6,3.8-2.5,6.1-2.5c2,0,4,0.7,5.7,1.8c0.3-1.7,1.2-3.3,2.5-4.6c1.7-1.7,3.9-2.6,6.3-2.6s4.6,0.9,6.3,2.6l6.9,6.9
					l13.9-14.2C166.6,705.4,166.6,701.4,164.2,698.9z"/>
			</g>
			<g>
				<path class="st2" d="M125.4,587.6L121,613l11.7-11.4h5.5l-11.2,9.5c0.3,0,0.6-0.1,0.9-0.1c4.6,0,5.8,3.7,5.8,7.9
					c0,3.3-1.3,6.7-1.3,9.3c0,2,0.3,3.4,1.7,3.4c1.8,0,3.6-2.6,5.4-7.7h2.1c-3.7,11.8-7.4,13-9.7,13c-3.9,0-5.5-3.4-5.5-7.9
					c0-3.1,1.3-6.7,1.3-8.9c0-2.3-0.5-3.9-2.4-3.9c-2.1,0-4,1.8-5.8,5.4l-2.6,14.9h-5.7l8.4-48.2L125.4,587.6z"/>
				<path class="st2" d="M145.2,622.7c-0.1,0.8-0.1,1.5-0.1,2.2c0,4.8,1.3,7,5,7c3.6,0,7.4-2.2,10.3-7.7h1.8c-3,6.9-8.8,13-14.9,13
					c-4.4,0-8.4-3.2-8.4-11.2c0-7.9,3.9-24.6,14.4-24.6c3.1,0,6.1,1.5,6.1,7.2C159.4,616.4,154,621.6,145.2,622.7z M145.5,620
					c6.3-1.2,10.5-5.8,10.5-12.1c0-1.6-0.3-3.1-2.1-3.1C149.6,604.7,146.5,612.7,145.5,620z"/>
				<path class="st2" d="M166.2,622.7c-0.1,0.8-0.1,1.5-0.1,2.2c0,4.8,1.3,7,5,7c3.6,0,7.4-2.2,10.3-7.7h1.8c-3,6.9-8.8,13-14.9,13
					c-4.4,0-8.4-3.2-8.4-11.2c0-7.9,3.9-24.6,14.4-24.6c3.1,0,6.1,1.5,6.1,7.2C180.4,616.4,175,621.6,166.2,622.7z M166.4,620
					c6.3-1.2,10.5-5.8,10.5-12.1c0-1.6-0.3-3.1-2.1-3.1C170.6,604.7,167.5,612.7,166.4,620z"/>
				<path class="st2" d="M191.4,599l-1,5.4c1.8-1.9,3.9-3.2,6.4-3.2c4,0,6.8,3.2,6.8,11.7c0,9.1-3.1,24.2-13.7,24.2
					c-2.1,0-3.5-1.4-4.6-3.4l-3.2,18.8l-6,1.8l9.5-55.3H191.4z M189.6,609.3l-3.6,20.9c0.9,1.8,2.2,2.5,3.1,2.5c6.8,0,9-13,9-19.5
					c0-5.6-2-7.3-3.9-7.3C192.4,605.8,190.9,607.1,189.6,609.3z"/>
				<path class="st2" d="M227.3,601.6l-4.2,23.9c-0.2,0.8-0.2,1.6-0.2,2.3c0,2.7,1.1,4,2.6,4c2.2,0,5-2.8,5.8-7.7l3.9-22.5h5.7
					l-5.8,33.7c4.2-1.6,6.7-4.1,8.6-11.2h2.1c-2.7,9.8-5.9,12.1-11.2,13.7l-0.7,4.5c-1.7,10-4,11.9-7.8,11.9c-3.5,0-6.3-1.8-6.3-6.3
					c0-4.6,4.8-8.2,9.1-10.3l0.7-4.4c-1.9,2.7-4,3.9-6,3.9c-3.4,0-6.3-3.6-6.3-9.4c0-1.1,0.1-2.3,0.3-3.6l3.9-22.5H227.3z
					 M228,642.5l0.4-2.2c-4.2,2.2-6.4,5.1-6.4,7.7c0,1.5,0.7,2.7,2.1,2.7C226.2,650.6,227.2,647.3,228,642.5z"/>
				<path class="st2" d="M264.5,612.4c3.4,0,6.5-1.4,9.3-4.2l0.5,1.9c-2.1,3-5.9,5.1-10,5.8c-0.7,12.1-5.4,21.3-12.4,21.3
					c-5,0-8.9-3.1-8.9-11.1c0-8.1,3.2-24.8,14.9-24.8C262.5,601.3,264.4,605.2,264.5,612.4z M261.5,616c-1.9,0-2.3-1.2-2.3-2.9
					c0-2.4,1-3.4,2.4-3.6c-0.3-3.3-1.5-4.4-3.4-4.4c-5.8,0-8.9,12.6-8.9,19.7c0,4.8,1.3,7,4.8,7C257.6,631.8,260.8,625.9,261.5,616z
					"/>
				<path class="st2" d="M290.6,601.6l-4.2,23.9c-0.2,0.8-0.3,2-0.3,3.2c0,1.6,0.3,3.2,1.8,3.2c1.8,0,3.8-2.9,5.4-7.7h2.1
					c-3.7,11.7-7.4,13-9.9,13c-2.5,0-4.3-2-4.6-6.7c-2.2,4.7-5.1,6.7-7.6,6.7c-3.4,0-6.3-3.6-6.3-9.4c0-1.1,0.1-2.3,0.3-3.6
					l3.9-22.5h5.8l-4.2,23.9c-0.2,0.8-0.2,1.6-0.2,2.3c0,2.7,1.1,4,2.6,4c2.2,0,5-2.8,5.8-7.7l3.9-22.5H290.6z"/>
				<path class="st2" d="M302.9,601.6l-1,5.8c2.2-2.9,4.5-6.1,7.6-6.1c2.3,0,3.2,1.4,3.2,3.3c0,3.6-2.3,4.6-3.3,4.6
					c-1.3,0-1.2-1.8-2.8-1.8s-3.6,1.8-5.2,3.4l-4.5,25.9h-5.7l6-35.1H302.9z"/>
				<path class="st2" d="M334.3,601.6l-1,5.8c2.2-2.9,4.5-6.1,7.6-6.1c2.3,0,3.2,1.4,3.2,3.3c0,3.6-2.3,4.6-3.3,4.6
					c-1.3,0-1.2-1.8-2.8-1.8s-3.6,1.8-5.2,3.4l-4.5,25.9h-5.7l6-35.1H334.3z"/>
				<path class="st2" d="M349.6,622.7c-0.1,0.8-0.1,1.5-0.1,2.2c0,4.8,1.3,7,5,7c3.6,0,7.4-2.2,10.3-7.7h1.8c-3,6.9-8.8,13-14.9,13
					c-4.4,0-8.4-3.2-8.4-11.2c0-7.9,3.9-24.6,14.4-24.6c3.1,0,6.1,1.5,6.1,7.2C363.9,616.4,358.5,621.6,349.6,622.7z M349.9,620
					c6.3-1.2,10.5-5.8,10.5-12.1c0-1.6-0.3-3.1-2.1-3.1C354.1,604.7,351,612.7,349.9,620z"/>
				<path class="st2" d="M386.7,624.2c-2.6,3.4-5.2,5.7-7.5,7.4c-1.8,4.1-5.2,5.5-7.9,5.5c-5.8,0-8.3-4.7-8.3-9c0-3.2,1.5-5.6,3-6.5
					c3.2-7,5.2-13.9,7-20.8l6-1.4c0.7,18,1.4,20.9,1.4,25.6c0,0.8-0.1,1.7-0.1,2.4c1.4-1,2.8-2.2,4-3.2H386.7z M373.3,607
					c-1,5.2-2.5,9.8-4.6,14.9c0.5,0.4,0.8,1.2,0.8,2.3c0,2.2-1.3,3.5-2.3,3.5c-0.6,0-1-0.3-1.4-1c0,3.3,1.2,5.2,3.7,5.2
					c2.9,0,5-1.9,5-6.8C374.5,621.2,373.9,619.2,373.3,607z"/>
				<path class="st2" d="M390.1,622.7c-0.1,0.8-0.1,1.5-0.1,2.2c0,4.8,1.3,7,5,7c3.6,0,7.4-2.2,10.3-7.7h1.8c-3,6.9-8.8,13-14.9,13
					c-4.4,0-8.4-3.2-8.4-11.2c0-7.9,3.9-24.6,14.4-24.6c3.1,0,6.1,1.5,6.1,7.2C404.4,616.4,398.9,621.6,390.1,622.7z M390.4,620
					c6.3-1.2,10.5-5.8,10.5-12.1c0-1.6-0.3-3.1-2.1-3.1C394.6,604.7,391.4,612.7,390.4,620z"/>
				<path class="st2" d="M417.4,587.6l-6.7,37.9c-0.2,0.8-0.3,2-0.3,3.2c0,1.6,0.3,3.2,1.8,3.2c1.8,0,3.8-2.9,5.4-7.7h2.1
					c-3.7,11.7-7.4,13-9.9,13c-3.9,0-5.1-3.6-5.1-7.8c0-1.7,0.2-3.5,0.5-5.2l6.2-35.6L417.4,587.6z"/>
				<path class="st2" d="M429.7,587.6l-6.7,37.9c-0.2,0.8-0.3,2-0.3,3.2c0,1.6,0.3,3.2,1.8,3.2c1.8,0,3.8-2.9,5.4-7.7h2.1
					c-3.7,11.7-7.4,13-9.9,13c-3.9,0-5.1-3.6-5.1-7.8c0-1.7,0.2-3.5,0.5-5.2l6.2-35.6L429.7,587.6z"/>
				<path class="st2" d="M435.7,622.7c-0.1,0.8-0.1,1.5-0.1,2.2c0,4.8,1.3,7,5,7c3.6,0,7.4-2.2,10.3-7.7h1.8c-3,6.9-8.8,13-14.9,13
					c-4.4,0-8.4-3.2-8.4-11.2c0-7.9,3.9-24.6,14.4-24.6c3.1,0,6.1,1.5,6.1,7.2C449.9,616.4,444.5,621.6,435.7,622.7z M436,620
					c6.3-1.2,10.5-5.8,10.5-12.1c0-1.6-0.3-3.1-2.1-3.1C440.1,604.7,437,612.7,436,620z"/>
				<path class="st2" d="M460.5,601.6l-1,5.8c2.2-2.9,4.5-6.1,7.6-6.1c2.3,0,3.2,1.4,3.2,3.3c0,3.6-2.3,4.6-3.3,4.6
					c-1.3,0-1.2-1.8-2.8-1.8c-1.7,0-3.6,1.8-5.2,3.4l-4.5,25.9h-5.7l6-35.1H460.5z"/>
			</g>
			<path class="st2" d="M211.8,659.9l-1,5.8c2.2-2.9,4.5-6.1,7.6-6.1c2.3,0,3.2,1.4,3.2,3.3c0,3.6-2.3,4.6-3.3,4.6
				c-1.3,0-1.2-1.8-2.8-1.8s-3.6,1.8-5.2,3.4l-4.5,25.9H200l6-35.1H211.8z"/>
			<path class="st2" d="M227.1,680.9c-0.1,0.8-0.1,1.5-0.1,2.2c0,4.8,1.3,7,5,7c3.6,0,7.4-2.2,10.3-7.7h1.8c-3,6.9-8.8,13-14.9,13
				c-4.4,0-8.4-3.2-8.4-11.2c0-7.9,3.9-24.6,14.4-24.6c3.1,0,6.1,1.5,6.1,7.2C241.4,674.6,236,679.8,227.1,680.9z M227.4,678.2
				c6.3-1.2,10.5-5.8,10.5-12.1c0-1.6-0.3-3.1-2.1-3.1C231.6,663,228.4,671,227.4,678.2z"/>
			<path class="st2" d="M254.4,645.8l-6.7,37.9c-0.2,0.8-0.3,2-0.3,3.2c0,1.6,0.3,3.2,1.8,3.2c1.8,0,3.8-2.9,5.4-7.7h2.1
				c-3.7,11.7-7.4,13-9.9,13c-3.9,0-5.1-3.6-5.1-7.8c0-1.7,0.2-3.5,0.5-5.2l6.2-35.6L254.4,645.8z"/>
			<path class="st2" d="M279.6,659.9l-4.2,23.9c-0.2,0.8-0.3,2-0.3,3.2c0,1.6,0.3,3.2,1.8,3.2c1.8,0,3.8-2.9,5.4-7.7h2.1
				c-3.7,11.7-7.4,13-9.9,13c-2.5,0-4.3-2-4.6-6.9c-1.8,3.8-5,6.9-8.7,6.9c-3.7,0-7.3-3.1-7.3-11.3c0-9.5,5-24.6,14.6-24.6
				c1.8,0,4.1,0.8,4.7,3.7l0.6-3.4H279.6z M269.9,682.4l2.7-15.9c-0.2-1.5-1.1-3.1-2.8-3.1c-6.3,0-9.7,12.7-9.7,19.7
				c0,5.3,1.4,7,3.6,7C266,690.1,269.2,686.7,269.9,682.4z"/>
			<path class="st2" d="M284.2,659.9h1.9l1.7-9.7l5.9-1l-1.9,10.7h4.4l-0.4,2.5h-4.4l-3.7,21.4c-0.1,0.8-0.4,2-0.4,3
				c0,1.7,0.5,3.3,2.2,3.3c2.1,0,4.4-2.9,6.3-7.7h2.1c-3.9,10.3-8,13-10.8,13c-4.2,0-5.4-3.9-5.4-7.9c0-1.8,0.3-3.7,0.5-5.1
				l3.5-20.1h-1.9L284.2,659.9z"/>
			<path class="st2" d="M305.4,659.9l-4.2,23.9c-0.2,0.8-0.3,2-0.3,3.2c0,1.6,0.3,3.2,1.8,3.2c1.8,0,3.8-2.9,5.4-7.7h2.1
				c-3.7,11.7-7.4,13-9.9,13c-3.9,0-5.1-3.6-5.1-7.8c0-1.7,0.2-3.5,0.5-5.2l3.9-22.5H305.4z M303.8,645.1c2.1,0,3.8,2.2,3.8,4.7
				c0,2.6-1.8,4.6-3.8,4.6c-2.1,0-3.8-2-3.8-4.6C300.1,647.2,301.7,645.1,303.8,645.1z"/>
			<path class="st2" d="M329,670.6c3.4,0,6.5-1.4,9.3-4.2l0.5,1.9c-2.1,3-5.9,5.1-10,5.8c-0.7,12.1-5.4,21.3-12.4,21.3
				c-5,0-8.9-3.1-8.9-11.1c0-8.1,3.2-24.8,14.9-24.8C327,659.5,328.9,663.5,329,670.6z M326.1,674.3c-1.9,0-2.3-1.2-2.3-2.9
				c0-2.4,1-3.4,2.4-3.6c-0.3-3.3-1.5-4.4-3.4-4.4c-5.8,0-8.9,12.6-8.9,19.7c0,4.8,1.3,7,4.8,7C322.1,690.1,325.3,684.2,326.1,674.3
				z"/>
			<path class="st2" d="M341.6,659.9l-0.9,5.3c3-4.9,5.8-5.6,7.8-5.6c4.6,0,5.9,3.7,5.9,7.9c0,6.2-2.7,13.6-2.7,19.2
				c0,2,0.3,3.4,1.7,3.4c1.8,0,3.6-2.6,5.4-7.7h2.1c-3.7,11.8-7.4,13-9.7,13c-3.9,0-5.5-3.4-5.5-7.9c0-6.2,2.7-13.8,2.7-18.7
				c0-2.3-0.6-3.9-2.5-3.9c-2.4,0-4.4,2.5-6.3,7.5l-3.9,22.6h-5.7l6-35.1H341.6z"/>
			<path class="st2" d="M380.5,682.4c-2.6,3.4-5.2,5.7-7.5,7.4c-1.8,4.1-5.2,5.5-7.9,5.5c-5.8,0-8.3-4.7-8.3-9c0-3.2,1.5-5.6,3-6.5
				c3.2-7,5.2-13.9,7-20.8l6-1.4c0.7,18,1.4,20.9,1.4,25.6c0,0.8-0.1,1.7-0.1,2.4c1.4-1,2.8-2.2,4-3.2H380.5z M367,665.2
				c-1,5.2-2.5,9.8-4.6,14.9c0.5,0.4,0.8,1.2,0.8,2.3c0,2.2-1.3,3.5-2.3,3.5c-0.6,0-1-0.3-1.4-1c0,3.3,1.2,5.2,3.7,5.2
				c2.9,0,5-1.9,5-6.8C368.2,679.5,367.7,677.4,367,665.2z"/>
			<path class="st2" d="M399.3,690.1c1.8,0,3.6-2.6,5.4-7.7h2.1c-3.7,11.8-7.4,13-9.7,13c-3.9,0-5.5-3.4-5.5-7.9
				c0-6.2,2.7-13.8,2.7-18.7c0-2.3-0.6-3.9-2.5-3.9c-2.4,0-4.5,2.4-6.3,7.5l-3.9,22.6h-5.7l8.4-48.2l5.9-1l-3.4,19.3
				c3-4.9,5.8-5.6,7.8-5.6c4.6,0,5.9,3.7,5.9,7.9c0,6.2-2.7,13.6-2.7,19.2C397.6,688.6,398,690.1,399.3,690.1z"/>
			<path class="st2" d="M414.3,659.9l-4.2,23.9c-0.2,0.8-0.3,2-0.3,3.2c0,1.6,0.3,3.2,1.8,3.2c1.8,0,3.8-2.9,5.4-7.7h2.1
				c-3.7,11.7-7.4,13-9.9,13c-3.9,0-5.1-3.6-5.1-7.8c0-1.7,0.2-3.5,0.5-5.2l3.9-22.5H414.3z M412.8,645.1c2.1,0,3.8,2.2,3.8,4.7
				c0,2.6-1.8,4.6-3.8,4.6c-2.1,0-3.8-2-3.8-4.6C409,647.2,410.7,645.1,412.8,645.1z"/>
			<path class="st2" d="M427.1,657.3l-1,5.4c1.8-1.9,3.9-3.2,6.4-3.2c4,0,6.8,3.2,6.8,11.7c0,9.1-3.1,24.2-13.7,24.2
				c-2.1,0-3.5-1.4-4.6-3.4l-3.2,18.8l-6,1.8l9.5-55.3H427.1z M425.3,667.5l-3.6,20.9c0.9,1.8,2.2,2.5,3.1,2.5c6.8,0,9-13,9-19.5
				c0-5.6-2-7.3-3.9-7.3C428.1,664.1,426.6,665.4,425.3,667.5z"/>
			<path class="st2" d="M455.4,657.7c0.7,18,1.4,20.9,1.4,25.6c0,9.1-5.4,12.1-9.1,12.1c-5.8,0-8.3-4.7-8.3-9c0-3.2,1.5-5.6,3-6.5
				c3.2-7,5.2-13.9,7-20.8L455.4,657.7z M449.6,665.2c-1,5.2-2.5,9.8-4.6,14.9c0.5,0.4,0.8,1.2,0.8,2.3c0,2.2-1.3,3.5-2.3,3.5
				c-0.6,0-1-0.3-1.4-1c0,3.3,1.2,5.2,3.7,5.2c2.9,0,5-1.9,5-6.8C450.8,679.5,450.2,677.4,449.6,665.2z"/>
		</g>
		<g>
			<g>
				<path class="st1" d="M150.9,568.2c11.5,0,23,0,34.5,0c27.8,0,55.6,0,83.5,0c33.5,0,67,0,100.6,0c29.1,0,58.3,0,87.4,0
					c9.6,0,19.1,0,28.7,0c4.4,0,9.3,0.6,13.7,0c0.2,0,0.4,0,0.6,0c3.2,0,3.2-5,0-5c-11.5,0-23,0-34.5,0c-27.8,0-55.6,0-83.5,0
					c-33.5,0-67,0-100.6,0c-29.1,0-58.3,0-87.4,0c-9.6,0-19.1,0-28.7,0c-4.4,0-9.3-0.6-13.7,0c-0.2,0-0.4,0-0.6,0
					C147.7,563.2,147.7,568.2,150.9,568.2L150.9,568.2z"/>
			</g>
		</g>
		<g>
			<g>
				<path class="st1" d="M497.2,565.9c0,46.6,0,93.2,0,139.8c0,6.6,0,13.3,0,19.9c0,3.2,5,3.2,5,0c0-46.6,0-93.2,0-139.8
					c0-6.6,0-13.3,0-19.9C502.2,562.6,497.2,562.6,497.2,565.9L497.2,565.9z"/>
			</g>
		</g>
	</g>
	<g>
		<rect x="47.6" y="403.1" class="st3" width="193.2" height="214.1"/>
		<path class="st1" d="M62.1,453.6c-3.3,0-6.1-1.2-8.5-3.5c-2.3-2.3-3.5-5.1-3.5-8.4v-27.2c0-3.3,1.2-6.1,3.5-8.5
			c2.3-2.3,5.1-3.5,8.4-3.5c3.3,0,6.1,1.2,8.4,3.5c2.3,2.3,3.5,5.1,3.5,8.4v5.7h-7.8v-5.8c0-1.2-0.4-2.2-1.3-3.1
			c-0.8-0.8-1.9-1.3-3.1-1.3c-1.2,0-2.2,0.4-3,1.3c-0.8,0.8-1.3,1.9-1.3,3.1v27.3c0,1.2,0.4,2.2,1.3,3c0.8,0.8,1.8,1.3,3,1.3
			c1.2,0,2.2-0.4,3.1-1.3c0.8-0.8,1.3-1.8,1.3-3v-6.9H74v7c0,3.3-1.2,6.1-3.5,8.4C68.2,452.5,65.4,453.6,62.1,453.6z"/>
		<path class="st1" d="M87.7,431.9V453h-7.5v-49.8h7.5v21.2h9.1v-21.2h7.5V453h-7.5v-21.1H87.7z"/>
		<path class="st1" d="M111,453v-49.9h21.4v7.6h-13.9v13.6h10.1v7.6h-10.1v13.6h13.9v7.6H111z"/>
		<path class="st1" d="M149.5,453.6c-3.3,0-6.1-1.2-8.5-3.5c-2.3-2.3-3.5-5.1-3.5-8.4v-27.2c0-3.3,1.2-6.1,3.5-8.5
			c2.3-2.3,5.1-3.5,8.4-3.5c3.3,0,6.1,1.2,8.4,3.5c2.3,2.3,3.5,5.1,3.5,8.4v5.7h-7.8v-5.8c0-1.2-0.4-2.2-1.3-3.1
			c-0.8-0.8-1.9-1.3-3.1-1.3c-1.2,0-2.2,0.4-3,1.3c-0.8,0.8-1.3,1.9-1.3,3.1v27.3c0,1.2,0.4,2.2,1.3,3c0.8,0.8,1.8,1.3,3,1.3
			c1.2,0,2.2-0.4,3.1-1.3c0.8-0.8,1.3-1.8,1.3-3v-6.9h7.8v7c0,3.3-1.2,6.1-3.5,8.4C155.6,452.5,152.8,453.6,149.5,453.6z"/>
		<path class="st1" d="M175.1,437.2V453h-7.5v-49.9h7.5v17.8l9.2-17.8h8L182,423.5l12.1,29.5h-8.8l-7.9-20.2L175.1,437.2z"/>
		<path class="st1" d="M58.2,467.5h-8V460h23.5v7.6h-8v42.3h-7.5V467.5z"/>
		<path class="st1" d="M87.2,488.7v21.1h-7.5V460h7.5v21.2h9.1V460h7.5v49.8h-7.5v-21.1H87.2z"/>
		<path class="st1" d="M118.1,509.8h-7.5V460h7.5V509.8z"/>
		<path class="st1" d="M149.2,497.4c0.1,3.5-0.8,6.4-2.7,8.9c-1.2,1.7-2.9,2.9-5.2,3.5c-1.2,0.4-2.6,0.6-4.2,0.6
			c-2.9,0-5.4-0.7-7.3-2.2c-1.6-1.2-2.9-2.8-3.8-4.9c-0.9-2.1-1.5-4.4-1.7-7.1l7.2-0.5c0.3,2.9,1.1,5,2.3,6.3c0.9,1,1.9,1.5,3.1,1.4
			c1.6-0.1,3-0.9,3.9-2.4c0.5-0.8,0.8-1.9,0.8-3.3c0-2.1-0.9-4.1-2.8-6.2c-1.5-1.4-3.7-3.5-6.7-6.3c-2.5-2.4-4.3-4.6-5.3-6.5
			c-1.1-2.1-1.7-4.5-1.7-7c0-4.5,1.5-8,4.6-10.3c1.9-1.4,4.2-2.1,7-2.1c2.7,0,5,0.6,6.9,1.8c1.5,0.9,2.7,2.2,3.6,3.9
			c0.9,1.7,1.5,3.6,1.7,5.8l-7.2,1.3c-0.2-2-0.8-3.6-1.8-4.8c-0.7-0.8-1.7-1.2-3-1.2c-1.4,0-2.4,0.6-3.1,1.8c-0.6,1-0.9,2.2-0.9,3.7
			c0,2.3,1,4.6,2.9,7c0.7,0.9,1.9,2,3.3,3.2c1.8,1.5,2.9,2.5,3.5,3.1c1.9,1.9,3.3,3.7,4.3,5.5c0.5,0.8,0.9,1.6,1.2,2.3
			C148.8,494.4,149.2,496,149.2,497.4z"/>
		<path class="st1" d="M62.1,516.1c3.3,0,6.1,1.2,8.5,3.5c2.3,2.3,3.5,5.1,3.5,8.4v27.2c0,3.3-1.2,6.1-3.5,8.5
			c-2.3,2.3-5.1,3.5-8.4,3.5c-3.3,0-6.1-1.2-8.4-3.5s-3.5-5.1-3.5-8.4v-27.2c0-3.3,1.2-6.1,3.5-8.5C56,517.3,58.8,516.1,62.1,516.1z
			 M66.2,527.9c0-1.2-0.4-2.2-1.3-3c-0.8-0.8-1.8-1.3-3-1.3c-1.2,0-2.2,0.4-3.1,1.3c-0.8,0.8-1.3,1.8-1.3,3v27.3
			c0,1.2,0.4,2.2,1.3,3c0.8,0.8,1.9,1.3,3.1,1.3c1.2,0,2.2-0.4,3-1.3c0.8-0.8,1.3-1.8,1.3-3V527.9z"/>
		<path class="st1" d="M92.5,567.2c-3.3,0-6.1-1.2-8.4-3.5s-3.5-5.1-3.5-8.4v-38.5h7.4v38.5c0,1.2,0.4,2.2,1.3,3
			c0.8,0.8,1.9,1.3,3.1,1.3c1.2,0,2.2-0.4,3-1.3c0.8-0.8,1.3-1.8,1.3-3v-38.5h7.8v38.5c0,3.3-1.2,6.2-3.5,8.4
			C98.6,566,95.8,567.2,92.5,567.2z"/>
		<path class="st1" d="M118.4,524.3h-8v-7.6h23.5v7.6h-8v42.3h-7.5V524.3z"/>
	</g>
	<line class="st8" x1="40.5" y1="44.6" x2="570.1" y2="44.6"/>
	<line class="st8" x1="198.1" y1="748.4" x2="570.1" y2="748.4"/>
	<line class="st8" x1="570.1" y1="34.6" x2="570.1" y2="758.4"/>
	<g>
	</g>
	<g>
	</g>
	<g>
	</g>
	<g>
	</g>
	<g>
	</g>
	<g>
	</g>
</g>
</svg>
